<?xml version="1.0" encoding="UTF-8"?>
<svg id="Layer_1" xmlns="http://www.w3.org/2000/svg" version="1.1" viewBox="0 0 209.5 76.5">
  <!-- Generator: Adobe Illustrator 29.3.1, SVG Export Plug-In . SVG Version: 2.1.0 Build 151)  -->
  <defs>
    <style>
      .st0 {
        fill: #fff;
      }
    </style>
  </defs>
  <path class="st0" d="M113,25.5c0,1.1,1,2.1,2.3,2.1s2.3-.9,2.3-2.1-1-2.1-2.3-2.1-2.3,1-2.3,2.1"/>
  <path class="st0" d="M135.3,25.5c0,1.1,1,2.1,2.3,2.1s2.3-.9,2.3-2.1-1-2.1-2.3-2.1-2.3,1-2.3,2.1"/>
  <polygon class="st0" points="96.8 68.1 106.1 68.1 106.1 70.3 94.3 70.3 94.3 50.2 96.8 50.2 96.8 68.1"/>
  <path class="st0" d="M119.2,61.2c0-2.7-1.7-4.2-4.2-4.2s-4,1.2-4.5,4.2h8.7ZM119.4,67l1.3,1.6c-1.9,1.5-3.1,2-5.4,2-4.4,0-7.2-2.9-7.2-7.8s2.8-7.8,7.2-7.8,6.6,1.7,6.5,8h-11.2c0,3.6,1.9,5.5,4.8,5.5,1.4,0,2.6-.3,4-1.5"/>
  <path class="st0" d="M134.2,62.8c-.3,0-.6,0-.9,0-4.4,0-6.2,1.2-6.2,3.3s1.1,2.6,2.9,2.6,4.1-1.8,4.1-4.7v-1.1h.1,0ZM136,70.7l-1-1.9c-.2-.4-.3-.8-.4-1.2h-.1l-.9,1.7c-.2.4-1.6,1.4-3.9,1.4-3.6,0-4.8-2-4.8-4.3s2.8-5.3,8.3-5.3h1.1v-1.1c0-1.7-.9-3-3.3-3s-3.2.7-4.3,1.6l-1.1-1.8c1.7-1.1,3.3-1.7,5.5-1.7,3.6,0,5.6,1.6,5.6,5.3v6.5l1.5,2.8-2.2,1h0Z"/>
  <path class="st0" d="M147.9,68.6c2.8,0,4.5-1.7,4.5-5.8s-1.8-5.8-4.5-5.8-4.6,2.3-4.6,5.8,1.6,5.8,4.6,5.8M152.2,67.7l-1,1.6c-.3.5-1.7,1.2-3.8,1.2-4.1,0-6.5-3.2-6.5-7.7s2.4-7.7,6.5-7.7,3.6.7,3.8,1.2l1,1.6h.2v-2.4h2.4v13.8c0,4.6-3.4,6.7-7.2,6.7s-4.6-1-5.9-2.2l1.4-1.7c1,1,2.4,1.8,4.5,1.8s4.8-1.5,4.8-4.5v-1.8h-.2Z"/>
  <path class="st0" d="M171.8,70.7l-1-1.9c-.2-.4-.3-.8-.3-1.4h-.1l-.8,1.5c-.3.6-1.9,1.8-4.5,1.8s-5.3-1.9-5.3-5.6v-9.6h2.4v9.3c0,2.5,1.2,3.8,3.4,3.8s4.5-1.9,4.5-4.9v-8.2h2.4v11.4l1.5,2.8-2.2,1h0Z"/>
  <path class="st0" d="M187.9,61.2c-.1-2.7-1.8-4.2-4.1-4.2s-4,1.2-4.5,4.2h8.6ZM188.1,67l1.3,1.6c-1.9,1.5-3.1,2-5.4,2-4.4,0-7.2-2.9-7.2-7.8s2.8-7.8,7.1-7.8,6.6,1.7,6.5,8h-11.2c.1,3.6,1.9,5.5,4.8,5.5,1.5,0,2.7-.3,4.1-1.5"/>
  <path class="st0" d="M106.7,38.5l2.6,3.3c-1.9,1.9-4.3,3-7.5,3-6.1,0-10.4-3.8-10.4-10.5s4.1-10.6,10.4-10.6,5.7,1.1,7.5,3l-2.6,3.3c-1.3-1.4-2.8-2.1-4.9-2.1-3.5,0-5.7,2.4-5.7,6.5s2.3,6.5,5.7,6.5c2-.2,3.6-1,4.9-2.4"/>
  <path class="st0" d="M127.9,39.3c0,1,.5,1.4,1.4,1.4s1,0,1.4-.3l.5,3.6c-.9.3-1.9.5-3.2.5-2.9,0-4.6-1.3-4.6-4.1v-7.8h-1.9v-3.6h1.9v-3.3h4.4v3.3h3.1v3.6h-3.1v6.7q0,0,0,0Z"/>
  <rect class="st0" x="135.4" y="29.2" width="4.4" height="15.1"/>
  <path class="st0" d="M152.4,40.7h5.7v3.5h-12.9l-.8-3.1,5.9-6.4c.2-.2.3-.3.5-.5l1.9-1.6v-.2c-.1,0-2.6.2-2.6.2h-5v-3.6h12.1l1,3.1-5.7,6.2c-.2.2-.4.4-.5.5l-2.1,1.7v.2h2.5Z"/>
  <path class="st0" d="M171,34.7c0-1.5-1-2.5-2.7-2.5s-2.7.9-3.1,2.5h5.8ZM172,39.5l2.4,2.8c-1.8,1.7-3.4,2.4-5.9,2.4-4.9,0-7.8-2.8-7.8-8s2.7-7.9,7.8-7.9,7.4,2.7,6.9,9.1h-10.2c.1,2,1.4,3.2,3.5,3.2,1.4,0,2.2-.5,3.3-1.6"/>
  <path class="st0" d="M182.9,32.1h.1l.8-1.7c.2-.5,1.5-1.6,4-1.6s5.2,1.7,5.2,5.8v9.6h-4.4v-8.9c0-1.9-1-2.8-2.6-2.8s-3.1,1.3-3.1,3.2v8.5h-4.4v-15h4.4v2.9h0Z"/>
  <path class="st0" d="M202.8,41.1c1.5,0,2.4-.5,2.4-1.3s-.9-1.1-3.2-1.5c-3.5-.5-5.3-2.1-5.3-4.5,0-3.4,2.9-5,6.5-5s4.6.7,6.2,1.7l-1.9,3.1c-1.1-.7-2.7-1.3-4.3-1.3s-2.1.5-2.1,1.2,1.1,1,3.5,1.4c3.1.5,4.9,1.9,4.9,4.5s-3.3,5.1-6.9,5.1-5.3-.8-6.8-2l1.9-3.1c1.5,1.1,3.2,1.7,5.1,1.7"/>
  <rect class="st0" x="113.1" y="29.2" width="4.4" height="15.1"/>
  <g>
    <path class="st0" d="M46.7,48.1s0,0,0,0h0Z"/>
    <path class="st0" d="M57,72.1l-1.8-.4c-3.3-.7-6.4-2-9.4-3.8-.2.5-.5,1-.9,1.5-1.3,1.6-3.2,2.6-5.1,2.6s-2.3-.3-3.2-1.1c-1.3-1-1.8-2.5-1.8-3.9s.6-3.2,1.8-4.5c.4-.5.9-.9,1.4-1.2-2.2-2.5-3.9-5.2-5.1-8.2l-.7-1.7,1.7-.5c.6-.2,5.1-1.7,5.5-1.8l1.4-.5.6,1.4c.7,1.5,1.6,2.9,2.6,4.3l2.6-6.2s0,0,0,0l1-2.3-7.5-6.3c-.1.3-.2.7-.2,1,0,.6,0,1.2,0,1.9v2.6c0,0-1.7,0-1.7,0-.4,0-5.1-.1-5.6-.1h-1.6v-1.6c0,0,0-.3,0-.3,0-1.3,0-2.6.3-3.8.2-1.3.5-2.5,1-3.7-.5-.1-.9-.3-1.4-.5-1.8-.8-3.2-2.3-3.3-4.3,0-.7.2-1.4.6-2,1-1.3,2.4-1.7,3.8-1.7s2.2.2,3.2.7c.6.2,1.1.5,1.5.9,1.6-1.6,3.5-2.9,5.5-3.9l1-.7.8.9c.3.3,2.8,2.9,3,3.2l1.5,1.6-1.9,1c-.7.3-1.3.7-1.9,1.2l8.1,1.6,2-4.7h-.6c-.8,0-1.7,0-2.5.2l-1.2.2-.6-1c-.2-.2-1.6-3-1.8-3.3l-1.1-2.1,2.4-.3c1.1,0,2.1-.2,3.1-.2s1.7,0,2.6.1c0-.8.4-1.6,1-2.2.6-.6,1.5-.9,2.3-.9s.7.1,1.1.2c1.9.6,3.3,2.1,3.5,4.2v.7c.9.4,1.9.8,2.8,1.3.3-.2.6-.5.9-.6.4-.2.8-.6,1.2-.9.6-.4,1.3-1,1.9-1.2.7-.3,1.3-.5,2-.9,1.1-.6,2.3-.7,3.5-1.1.3-.1.5-.1.8-.2s.8,0,1-.3c.2-.1.7-.3.9-.4.2,0,.4-.3.6-.4.7-.2,1.3-.4,2-.8,0,0,.2-.2.3-.2.2,0,0-.1.1-.2,0-.2.3,0,.5,0-.3-.4,0-.4.2-.3.2,0,1-.1,1.2-.2h-.8c-.2,0-.3,0-.5,0h-.7c-.4-.1-.9-.3-1.3-.1-.3.2-.7.6-1.1.2-.2-.2-.3,0-.6-.3s-.2-.4-.5-.7c-.4-.5-1.4-.5-2-.5-.8,0-1.6.2-2.5,0-.3,0-.7.1-1,.1s-.4,0-.5-.1c0,0,.2-.2.1-.2-.1-.1-.4,0-.5,0-.3,0-.7.2-1,.3-.3,0-.6,0-.7-.2,0,0-.2-.2-.2-.3h.2c0-.2-.3-.6-.4-.6-.3-.1,0-.6-.4-.9-.4-.4-1.5.5-1.9.7-.5.3-.9.3-1.4.8-.2.2-.4.1-.5.4-.2.2-.3.4-.6.4-.3.1-.6,0-.9.1-.2,0-.6.3-.7.3-.3,0-.4-.3-.8-.2-.3,0-.6.2-.9.3-.4.1,0-.6,0-.7-.1-.2-1,0-1.2-.2,0-.2-.2,0-.2-.1s.2-.2.1-.3c0,0-.1-.2-.2-.3-.1,0,0-.3-.1-.4-.2,0-.5,0-.8,0-.2,0-.6,0-.8,0-.3-.2-.4-.2-.8-.3-.7,0-.8-.4-.8-.9s-.6-.7-1-.7c-.6,0-1.1.2-1.7.2-.8-.1-.1,1.4-.2,1.4s-.9.3-1,.3-.4-.8-.4-.9c0-.3-.5-.6-.7-.9-.1-.3.3-.4,0-.7-.4-.4-.4-.5-.9-.4-.3,0-.7,0-1,0s-.7-.2-.6-.5c0-.3.2-.2.5-.2s.3-.2.2-.4c-.2-.3-.5-.2-.8-.2-.8,0-1.6-.5-2.4-.9-.3-.1-.2-.3-.6-.2h-1.2c-.5,0-.9-.1-1.3-.2-.4,0-.8,0-1.1,0-.2.1-.4.3-.7.3s-.9,0-.9.3-.1.5-.4.6c-.3.1-.7.2-1.1.2s-.2,0-.3,0-.3,0-.4.2c-.4.1-1.5.2-1.6-.2-.1-.2,0-.6,0-.9-.2-.4-.4-.4-.8-.4-.8,0-1.5,0-2.2-.2-.4-.1-.8,0-1.2-.1-.4,0-.2-.2-.4-.4-.2-.3-1.5-.5-1.9-.3-.2.2-.5.1-.8.1s-.4-.2-.6-.2c-.4,0-1.2-.4-1.5-.7-.4-.5,0-.9,0-1.3,0-.3-.2-.8-.3-1.1,0-.3-.2-.7-.3-1,0-.3,0-.5-.2-.8.1-.8,0-1-.2-1.4,0-.4-.2-.8-.3-1.2v-.7c-.2-.4-1.2-.6-1.6-.6-.7,0-1.3-.1-2-.2v4.5c0,.4-.1.3-.4.3H0c0,.3,0,1.1.3,1.3,0,.1.2.5.2.7s0,.3,0,.4.3,0,0,.2c.3.3.3.5.3.7,0,.2.3.4.4.6.1,0,0,0,0,.3.1,0,0,.2,0,.3,0,.2,0,.5-.2.5.1.1,0,.2,0,.2,0,.2,0,.4-.2.4.1.2-.3.3.1.4-.1,0-.1.1-.2.1,0,0,0,0,.2,0-.2,0,0,.3,0,.6,0,0,0,.2,0,.3s.2,0,0,.4h.2v.3c-.3-.2-.5.1,0,.1,0,0-.2.2-.3.3.3,0,.3,0,.1.2.2,0,.4.3.2.4-.3.2.1.2.2.3,0,0-.2,0-.2,0,.2,0,.2,0,0,0,.3,0,.2.3,0,.4.3,0,0,0,0,.3s.4.3,0,.3c0,.1.2.2.2.2-.2,0-.2.2-.2.4,0,0,0,0,.2,0,0,.1-.1.1-.1.2.2,0,.3.8.4,1s.4.2.3.5c0,.2.1.3.2.5,0,.4,0,.3.2.7,0,0,.2.3.2.4s-.1.4,0,.5c.1.1.2.3.3.4,0,.2,0,.4,0,.6l.3.3c.1,0,0,0,.1.2,0,.2,0,.4,0,.5.1.2.3.5.4.7,0,.4.3.7.4,1.1.1.4,0,.7,0,1,0,.3,0,.5,0,.7,0,.1,0,.4,0,.5s.3.2.3.4-.2.3,0,.5,0,.3,0,.5-.1.6-.1.7c0,.2.4,1.1.1,1.3,0,.4,0,.9,0,1.4s.1,0,0,.2c0,.1,0,.2,0,.3,0,.2,0,.6.4.6-.2.3.5.3.5.5,0,.3-.2.7-.2,1-.1.2-.2.3-.1.6,0,.3.1.6.1.9s-.3,1,0,1.3c.2.4.3.6.4,1,.1.2,0,.6.1.8,0,.1.2.2.3.4,0,0,0,.3,0,.4.1,0,.2.3.3.4.1.2.2.4.3.5.2.2.3.1.5.3.2.3,0,.8,0,1.1s0,.5,0,.8c.1.4.3.8.3,1.2,0,.4-.3.7-.2,1-.1.4,0,.9-.1,1.2-.2.3,0,.7,0,1.1,0,.5-.4.8-.7,1.3-.3.8-2.7,1-2.2,2.2.3.3.7.6.9,1s.3,1,.8,1.2c.2,0,.6,0,.8,0,.2.1.6.2.8.3.5.3.8.7.8,1.3v8.4c0,1.9-.1,3.8,0,5.6v4.6c-.1,1.5,0,3,0,4.5h55.9c.1-.2,0-.4,0-.8s0-.9-.2-1.4c-.1-.4,0-.7,0-1.1s-.2-.7-.2-1.1-.3-.7-.6-.8c-.3,0-.3-.4-.5-.6-.5-.4-1-.9-1.7-1-.4-.1-.5-.1-.8-.2-.3-.2-.5-.3-.8-.5-.5-.4-1.1-.8-1.6-1.3-.2,1.2-.3,2.3-.4,2.6l-.2,1.8ZM22.3,47.2v-.2.2Z"/>
  </g>
  <path class="st0" d="M47.8,38.5l9,1.6,2.4-6.4,2.8,7.3,7.8,1.5s-5.6,3.3-6,3.5c0,0,3.1,8.5,3.1,8.5,0,0-7.1-5.8-7.4-6.1,0,0-7.6,4.3-7.6,4.3l3-8.1c0-.2-7.1-6.1-7.1-6.1M31.4,33.4c1.1.5,2.3.7,3.2.5-.9,1.7-1.6,3.5-1.9,5.5-.2,1.2-.3,2.4-.3,3.7.5,0,5.2,0,5.6,0,0-1,0-2,0-2.9.2-1.2.4-2.3.8-3.3v-.3c0,0,10.5,8.7,10.5,8.7l-5,12.1-.3-.3c-1.8-2-3.3-4.2-4.3-6.5-.4,0-4.9,1.6-5.5,1.8,1.4,3.5,3.6,6.7,6.4,9.5-1.1.2-2.2.7-3,1.7-1.7,1.9-1.8,4.6-.2,6s4.3.8,5.9-1.2c.8-1,1.2-2.2,1.2-3.2,3.3,2.4,7,4.1,10.9,4.9,0-.6.7-5.2.8-5.7-2.5-.6-4.9-1.6-7.2-3.1l-.4-.2,11.2-7,10.5,8.7-.3.2c-1.8,1-3.8,1.7-6.1,2,0,.4,1,5,1.1,5.5,3.3-.5,6.2-1.8,8.6-3.5,0,.9.4,1.9,1,2.9,1.3,1.8,3.2,2.4,4.2,1.3,1-1,.8-3.2-.4-4.9-.6-.9-1.4-1.4-2.2-1.7,1.9-2.1,3.2-4.4,3.9-7-.3-.2-3.4-2.2-3.7-2.4-.6,1.8-1.5,3.4-2.8,4.8h-.2l-4.7-11.8,7.4-4.8v.3c.4,1,.7,2,.9,3,0,.8.2,1.6.2,2.4.3,0,3.3,1.1,3.7,1.2,0-1-.2-2-.3-3-.3-1.6-.8-3.2-1.4-4.8.6.4,1.4.6,2,.5,1.2-.2,1.6-1.3,1.1-2.4-.6-1.1-1.9-1.9-3.1-1.8-.7,0-1.1.5-1.3,1-1.3-2.3-2.8-4.5-4.7-6.4-.2.2-1.9,1.6-2.1,1.7,1.3,1.4,2.5,2.9,3.4,4.5l.2.3-10-2.1-3.8-9.4h.3c1.8.7,3.5,1.6,5.1,2.6,0-.2,1.2-2.1,1.3-2.4-2.3-1.5-4.8-2.7-7.3-3.5.5-.2.9-.8.8-1.5,0-1.1-1.1-2.3-2.3-2.7-1.2-.4-2.2.3-2.2,1.5s.4,1.4,1,2c-2.7-.6-5.5-.7-8.2-.4.2.3,1.6,3.1,1.8,3.3,1.8-.3,3.7-.3,5.5,0h.3l-3.5,8-12.5-2.5.2-.2c1.2-1.5,2.6-2.6,4.3-3.5-.2-.3-2.7-2.9-3-3.2-2.4,1.2-4.5,2.8-6.3,5-.3-.8-1.1-1.5-2.1-2-1.9-.9-4.1-.7-4.9.4-.7,1.4.2,3.1,2.1,4"/>
</svg>