<?xml version="1.0" encoding="UTF-8"?>
<svg id="Layer_1" xmlns="http://www.w3.org/2000/svg" version="1.1" viewBox="0 0 225.9 69.7">
  <!-- Generator: Adobe Illustrator 29.3.1, SVG Export Plug-In . SVG Version: 2.1.0 Build 151)  -->
  <defs>
    <style>
      .st0 {
        fill: #fff;
      }
    </style>
  </defs>
  <path class="st0" d="M80,43.9v-18l-3.9,11.9h-2.5l-3.9-11.6v17.7h-4.5V15.1h4.1l5.6,15.1,5.6-15.1h4.1v28.8h-4.5Z"/>
  <path class="st0" d="M88.9,43.9v-20.8h4.3v20.8h-4.3Z"/>
  <path class="st0" d="M105.9,43.9v-15.3c0-.7-.2-1.3-.6-1.9-.8-.8-2.2-.8-3,0-.4.5-.7,1.2-.6,1.9v15.3h-4.3v-21.3h4.1v1.6c.2-.3.4-.5.6-.8.2-.2.5-.4.8-.6.6-.4,1.4-.6,2.1-.6.8,0,1.5.1,2.2.4.6.3,1.2.7,1.7,1.2.4.5.8,1.1.9,1.7.2.9.3,1.9.3,2.9v15.4h-4.3Z"/>
  <path class="st0" d="M122.6,43.9v-15.3c0-.7-.2-1.3-.6-1.9-.8-.8-2.2-.8-3,0-.4.5-.7,1.2-.6,1.9v15.3h-4.3v-21.3h4.1v1.6c.2-.3.4-.5.6-.8.2-.2.5-.4.8-.6.6-.4,1.4-.6,2.1-.6.8,0,1.5.1,2.2.4.6.3,1.2.7,1.7,1.2.4.5.8,1.1.9,1.7.2.9.3,1.9.3,2.9v15.4h-4.3Z"/>
  <path class="st0" d="M134.6,34.5c0,1.2,0,2.2.1,3.1,0,.7.2,1.3.5,1.9.4.5,1,.9,1.7.9.6,0,1.3-.3,1.6-.8.2-.2.3-.5.4-.9,0-.4.1-.7.1-1.1h4.3c0,.9-.2,1.8-.5,2.6-.3.8-.7,1.6-1.4,2.3-.5.6-1.2,1.1-2,1.3-.9.3-1.7.4-2.6.4-.9,0-1.7-.1-2.5-.4-.8-.3-1.5-.8-2.1-1.4-.5-.5-.8-1.1-1-1.7-.3-.7-.5-1.4-.6-2.2-.1-.9-.2-1.7-.3-2.6,0-.9,0-1.9,0-2.8,0-1.8,0-3.6.3-5.4.1-1.4.7-2.8,1.7-3.9.6-.6,1.3-1.1,2.1-1.4.8-.2,1.6-.3,2.5-.3.8,0,1.7.1,2.5.3.8.3,1.5.7,2.1,1.4,1,1.1,1.6,2.5,1.6,4,.3,2.2.4,4.3.4,6.5h-8.8ZM139.2,31.3c0-1,0-1.9-.1-2.9,0-.5-.2-1-.5-1.5-.2-.3-.4-.5-.7-.6-.6-.3-1.4-.3-2,0-.3.2-.5.4-.7.6-.3.5-.4,1-.5,1.5-.1,1-.2,1.9-.1,2.9h4.6Z"/>
  <path class="st0" d="M155,43.9v-1.8c-.2.3-.4.5-.6.8-.2.2-.4.4-.7.6-.3.2-.6.4-1,.5-.4.1-.9.2-1.4.2-.8,0-1.6-.1-2.3-.4-.7-.3-1.3-.8-1.7-1.4-1-1.4-1.4-3.1-1.3-4.8,0-.9.2-1.8.5-2.7.3-.8.8-1.5,1.5-2.1.5-.5,1.2-.9,1.9-1.1,1-.3,2-.4,3-.4h1.9v-2.9c0-1.6-.7-2.5-2.1-2.5-.5,0-1.1.2-1.4.6-.5.6-.7,1.3-.6,2h-4.3c0-.8.1-1.7.4-2.4.3-.8.8-1.6,1.4-2.2.6-.6,1.3-1,2-1.2.8-.3,1.7-.5,2.5-.5.9,0,1.7.1,2.5.4.8.2,1.4.6,2,1.2.6.6,1,1.3,1.4,2.1.4,1,.5,2,.5,3v15h-4.1ZM154.7,34.5h-1.4c-.4,0-.8,0-1.2.1-.4,0-.7.3-1,.5-.3.3-.5.7-.6,1-.1.4-.2.9-.2,1.3,0,2,.7,3,2.2,3,.6,0,1.2-.3,1.6-.8.5-.6.7-1.3.6-2.1v-3.2Z"/>
  <path class="st0" d="M175.9,33.2c0,2.3,0,4.2-.2,5.8,0,1.3-.5,2.5-1.3,3.6-.4.6-1,1-1.6,1.3-.7.3-1.4.4-2.1.4-.8,0-1.5-.2-2.1-.6-.5-.3-.9-.7-1.2-1.1v8.9h-4.3v-28.8h4.1v1.6c.2-.3.4-.5.6-.7.3-.2.5-.4.8-.6.7-.4,1.4-.6,2.1-.6.7,0,1.4.1,2.1.4.7.3,1.2.7,1.6,1.3.8,1,1.2,2.3,1.3,3.6.1,1.5.2,3.4.2,5.7ZM171.6,33.2v-2.6c0-.7,0-1.3-.1-1.8,0-.4-.1-.8-.2-1.2,0-.3-.2-.5-.4-.7-.3-.5-.9-.9-1.6-.9-.5,0-1.1.2-1.5.6-.2.2-.4.5-.5.8-.1.4-.2.8-.2,1.2v9.1c0,.7.2,1.5.6,2,.4.4.9.6,1.5.6.6,0,1.2-.3,1.6-.8.2-.2.3-.5.4-.7.1-.4.2-.8.2-1.2,0-.5,0-1.1.1-1.8s0-1.6,0-2.6Z"/>
  <path class="st0" d="M191.9,33.2c0,1.7,0,3.3-.2,5,0,1.3-.5,2.6-1.3,3.7-.5.8-1.3,1.4-2.2,1.8-1.8.6-3.8.6-5.7,0-.9-.4-1.7-1-2.2-1.8-.7-1.1-1.2-2.4-1.3-3.7-.3-3.3-.3-6.7,0-10,0-1.3.5-2.6,1.3-3.7.5-.8,1.3-1.4,2.2-1.8,1.8-.6,3.8-.6,5.7,0,.9.3,1.7,1,2.2,1.8.7,1.1,1.2,2.4,1.3,3.7.2,1.7.3,3.3.2,5ZM187.6,33.2c0-1.6,0-2.9,0-4,0-.8-.2-1.6-.5-2.3-.2-.3-.4-.5-.7-.7-.3-.1-.6-.2-.9-.2-.3,0-.6,0-.9.2-.3.2-.6.4-.7.7-.4.7-.5,1.5-.5,2.3,0,1,0,2.4,0,4s0,2.9,0,4c0,.8.2,1.6.5,2.3.2.3.4.5.7.6.3.1.6.2.9.2.3,0,.6,0,.9-.2.3-.1.6-.4.7-.6.4-.7.5-1.5.5-2.3,0-1.1,0-2.4,0-4Z"/>
  <path class="st0" d="M202.5,43.9c-.9,0-1.8,0-2.8-.2-.8-.2-1.6-.5-2.3-1.1-.7-.5-1.2-1.2-1.6-2-.4-1-.6-2.1-.6-3.2V15.1h4.3v22.1c0,1.9,1,2.9,2.9,2.9v3.8Z"/>
  <path class="st0" d="M205.3,43.9v-20.8h4.3v20.8h-4.3Z"/>
  <path class="st0" d="M225.9,37.8c0,.9-.2,1.9-.5,2.8-.3.7-.8,1.4-1.4,2-.6.6-1.3,1.1-2.1,1.4-.8.3-1.7.4-2.5.4-.9,0-1.8-.1-2.6-.4-.8-.3-1.5-.7-2.1-1.3-1.3-1.3-2-3-1.9-4.8h4.2c0,.7.2,1.5.7,2,.2.2.5.4.8.5.3.1.6.2.9.2.6,0,1.2-.2,1.7-.6.2-.2.4-.4.5-.7.1-.3.2-.7.2-1,0-.6-.1-1.1-.5-1.6-.4-.6-1-1-1.7-1.2l-2.8-1.3c-1.3-.5-2.3-1.3-3.1-2.5-.5-.9-.7-1.9-.7-2.9,0-.9.1-1.8.5-2.6.3-.7.8-1.4,1.4-2,.6-.6,1.3-1.1,2.1-1.3.8-.3,1.7-.4,2.5-.4.9,0,1.7.1,2.5.4.8.2,1.4.7,2,1.2.6.6,1,1.2,1.3,2,.3.9.5,1.8.5,2.8h-4.2c0-.4,0-.8-.1-1.1,0-.3-.3-.6-.5-.8-.4-.4-.9-.6-1.5-.6-.6,0-1.2.2-1.6.6-.4.4-.6,1-.6,1.6,0,.4,0,.9.3,1.2.4.6.9,1,1.6,1.2l2.8,1.2c.6.3,1.3.6,1.8,1,.5.4.9.8,1.3,1.3.7,1.1,1,2.3.9,3.5Z"/>
  <path class="st0" d="M93.5,17.8c0,1.5-1.2,2.6-2.6,2.6-1.5,0-2.6-1.2-2.6-2.6s1.2-2.6,2.6-2.6,2.6,1.2,2.6,2.6h0Z"/>
  <path class="st0" d="M209.9,17.9c0,1.5-1.2,2.6-2.6,2.6-1.5,0-2.6-1.2-2.6-2.6s1.2-2.6,2.6-2.6,2.6,1.2,2.6,2.6h0Z"/>
  <path class="st0" d="M73.8,65c-1,.4-2.1.7-3.2.6-3.5,0-6.1-2.3-6.1-6.5s2.6-6.8,6.4-6.8c1,0,2,.2,2.9.6l-.4,1.4c-.8-.4-1.6-.6-2.5-.5-2.9,0-4.8,1.9-4.8,5.3s1.7,5.2,4.7,5.2c.9,0,1.8-.2,2.6-.5l.3,1.3Z"/>
  <path class="st0" d="M77.5,53.6c0,.6-.4,1-1,1s-1-.4-1-1c0-.6.4-1,.9-1,0,0,0,0,0,0,.6,0,1,.4,1,1,0,0,0,0,0,0ZM75.7,65.5v-9.3h1.6v9.3h-1.6Z"/>
  <path class="st0" d="M81.9,53.5v2.7h2.3v1.3h-2.3v5c0,1.1.3,1.8,1.2,1.8.3,0,.6,0,.9-.1v1.3c-.4.2-.9.2-1.4.2-.7,0-1.3-.2-1.7-.7-.5-.7-.7-1.6-.6-2.4v-5.1h-1.4v-1.3h1.4v-2.2l1.6-.4Z"/>
  <path class="st0" d="M86.8,56.2l1.9,5.5c.2.6.4,1.4.6,1.9h0c.2-.6.3-1.3.6-1.9l1.8-5.5h1.7l-2.4,6.6c-1.1,3.2-1.9,4.8-3,5.8-.6.5-1.2.9-2,1.1l-.4-1.4c.5-.2,1-.5,1.4-.8.6-.5,1.1-1.2,1.4-1.9,0-.1.1-.3.1-.4,0-.2,0-.3-.1-.4l-3.3-8.6h1.8Z"/>
  <path class="st0" d="M106.6,60.7c0,3.4-2.3,4.9-4.4,4.9s-4.2-1.9-4.2-4.8,1.9-4.9,4.4-4.9,4.2,1.9,4.2,4.8ZM99.6,60.8c0,2,1.1,3.6,2.7,3.6s2.7-1.5,2.7-3.6-.7-3.6-2.6-3.6-2.7,1.8-2.7,3.6h0Z"/>
  <path class="st0" d="M108.8,65.5v-8h-1.2v-1.3h1.2v-.4c0-1.2.3-2.3,1-3.2.6-.6,1.3-.9,2.1-.9.5,0,.9,0,1.4.3l-.2,1.3c-.3-.1-.7-.2-1-.2-1.4,0-1.7,1.3-1.7,2.7v.5h2.1v1.3h-2.1v8h-1.6Z"/>
  <path class="st0" d="M117.9,52.5h1.6v11.5h5.3v1.4h-6.8v-13Z"/>
  <path class="st0" d="M131.3,65.5v-1.2h-.2c-.6.9-1.6,1.4-2.7,1.4-1.4,0-2.6-1-2.7-2.5,0,0,0-.1,0-.2,0-2.2,1.9-3.5,5.3-3.5v-.2c.2-1-.6-2-1.6-2.1-.1,0-.3,0-.4,0-.8,0-1.6.2-2.3.7l-.4-1.1c.9-.6,1.9-.8,2.9-.8,2.7,0,3.4,1.9,3.4,3.8v3.5c0,.7,0,1.5.1,2.2h-1.4ZM131.1,60.7c-1.8,0-3.7.3-3.7,2.1,0,.8.5,1.5,1.3,1.6,0,0,.1,0,.2,0,1,0,1.8-.6,2.1-1.6,0-.2,0-.3,0-.5v-1.6Z"/>
  <path class="st0" d="M136.8,60.4h0c.2-.3.5-.7.8-1.1l2.6-3.2h1.9l-3.4,3.8,3.9,5.5h-2l-3-4.5-.8,1v3.5h-1.6v-13.7h1.6v8.6Z"/>
  <path class="st0" d="M144.7,61.1c0,2.3,1.4,3.2,3,3.2.8,0,1.7-.1,2.4-.5l.3,1.2c-.9.4-1.9.6-2.9.6-2.7,0-4.3-1.9-4.3-4.7s1.6-5,4.1-5,3.6,2.7,3.6,4.4c0,.3,0,.5,0,.8h-6.2ZM149.4,59.9c0-1.1-.4-2.8-2.2-2.8s-2.3,1.6-2.5,2.8h4.7Z"/>
  <path class="st0" d="M152.7,63.7c.6.4,1.4.6,2.1.7,1.2,0,1.7-.6,1.7-1.4s-.5-1.2-1.6-1.7c-1.6-.6-2.3-1.5-2.3-2.6,0-1.5,1.3-2.8,2.8-2.7,0,0,.2,0,.2,0,.8,0,1.5.2,2.2.6l-.4,1.2c-.5-.4-1.2-.5-1.8-.5-.7,0-1.4.4-1.5,1.1,0,0,0,0,0,.1,0,.8.5,1.1,1.7,1.6,1.5.6,2.3,1.4,2.3,2.8s-1.2,2.8-3.3,2.8c-.9,0-1.7-.2-2.5-.6l.4-1.3Z"/>
  <path class="st0" d="M19.3,35.9c-.1,0-.2-.2-.1-.3,0,0,0,0,0,0,5.2-4.6,9.1-10.5,11.1-17.1,1.8-5.9,1.5-12.1.3-18.2,0,0,0-.1.1-.1,0,0,0,0,0,0,6,14.4,7,30.4,2.9,45.5,0,0,0,0-.2,0,0,0,0,0,0,0-3.3-4.8-8.3-7.7-14.2-9.7Z"/>
  <path class="st0" d="M.1,49.1c17.1-3.1,34.7-3,51.8.2,0,0,.1,0,0,.2,0,0,0,0,0,0-4.2,1.9-7.6,5-9.9,8.9,0,0-.1,0-.2,0,0,0,0,0,0,0-6.4-3.8-13.5-6.4-20.9-7.5-6.9-1.1-13.9-1.6-20.8-1.6,0,0-.1-.1-.1-.2,0,0,0,0,.1-.1Z"/>
  <path class="st0" d="M0,51.9c8.8-.7,17.6.3,26,2.9,0,0,0,0,0,0s0,0,0,0h0c-2.3.6-4.3,2-5.6,4,0,0,0,0,0,0,0,0,0,0,0,0-1.2-1.9-3.4-2.8-5.4-3.6-4.8-1.7-9.8-2.8-14.9-3.3,0,0,0,0,0-.1,0,0,0,0,0,0Z"/>
</svg>