<?xml version="1.0" encoding="UTF-8"?>
<svg id="Layer_1" data-name="Layer 1" xmlns="http://www.w3.org/2000/svg" viewBox="0 0 352.29 242.2">
  <defs>
    <style>
      .cls-1 {
        fill: #fff;
      }
    </style>
  </defs>
  <g>
    <path class="cls-1" d="M0,159.81c0-.47.38-.9.85-.9h11.51c9.11,0,16.56,7.42,16.56,16.49s-7.45,16.58-16.56,16.58H.85c-.47,0-.85-.43-.85-.9v-31.27ZM11.89,184.99c5.33,0,9.2-4.21,9.2-9.59s-3.87-9.54-9.2-9.54h-4.53v19.13h4.53Z"/>
    <path class="cls-1" d="M39.88,159.81c0-.47.38-.9.89-.9h19.53c.52,0,.9.43.9.9v5.15c0,.47-.38.9-.9.9h-13.07v5.86h10.76c.47,0,.89.43.89.9v5.15c0,.52-.42.9-.89.9h-10.76v6.38h13.07c.52,0,.9.43.9.9v5.15c0,.47-.38.9-.9.9h-19.53c-.52,0-.89-.43-.89-.9v-31.27Z"/>
    <path class="cls-1" d="M73.91,159.81c0-.47.38-.9.89-.9h11.37c5.8,0,10.57,4.72,10.57,10.44s-4.76,10.63-10.52,10.63h-4.96v11.1c0,.47-.42.9-.89.9h-5.57c-.52,0-.89-.43-.89-.9v-31.27ZM85.75,173.09c2.03,0,3.73-1.61,3.73-3.73,0-1.98-1.7-3.5-3.73-3.5h-4.48v7.23h4.48Z"/>
    <path class="cls-1" d="M99.58,190.75l14.77-31.79c.14-.28.47-.52.8-.52h.47c.33,0,.66.24.8.52l14.77,31.79c.28.61-.09,1.23-.8,1.23h-5.24c-.85,0-1.23-.28-1.65-1.18l-1.7-3.73h-12.83l-1.7,3.78c-.24.57-.76,1.13-1.7,1.13h-5.19c-.71,0-1.09-.61-.8-1.23ZM118.97,180.65l-3.59-7.8h-.05l-3.54,7.8h7.17Z"/>
    <path class="cls-1" d="M140.26,159.81c0-.47.38-.9.89-.9h14.11c5.66,0,10.28,4.58,10.28,10.2,0,4.35-2.88,7.84-6.98,9.5l6.46,12c.33.61,0,1.37-.8,1.37h-6.27c-.38,0-.66-.24-.76-.43l-6.27-12.52h-3.26v12.05c0,.47-.42.9-.9.9h-5.61c-.52,0-.89-.43-.89-.9v-31.27ZM154.65,173.04c1.93,0,3.59-1.79,3.59-3.78s-1.65-3.59-3.59-3.59h-6.98v7.37h6.98Z"/>
    <path class="cls-1" d="M182.5,165.86h-6.75c-.52,0-.89-.42-.89-.9v-5.15c0-.47.38-.9.89-.9h20.95c.52,0,.89.43.89.9v5.15c0,.47-.38.9-.89.9h-6.75v25.23c0,.47-.42.9-.9.9h-5.66c-.47,0-.9-.43-.9-.9v-25.23Z"/>
    <path class="cls-1" d="M211.52,159.2c.05-.43.47-.76.85-.76h.76c.24,0,.66.19.8.47l10.94,20.41h.09l10.95-20.41c.14-.28.56-.47.8-.47h.76c.38,0,.8.33.85.76l5.33,31.74c.09.61-.33,1.04-.9,1.04h-5.57c-.42,0-.85-.38-.9-.76l-2.12-14.6h-.09l-7.92,15.31c-.14.28-.57.52-.8.52h-.85c-.28,0-.66-.24-.8-.52l-7.97-15.31h-.09l-2.08,14.6c-.05.38-.42.76-.9.76h-5.57c-.57,0-.99-.43-.9-1.04l5.33-31.74Z"/>
    <path class="cls-1" d="M256.07,159.81c0-.47.38-.9.89-.9h19.53c.52,0,.9.43.9.9v5.15c0,.47-.38.9-.9.9h-13.07v5.86h10.76c.47,0,.89.43.89.9v5.15c0,.52-.42.9-.89.9h-10.76v6.38h13.07c.52,0,.9.43.9.9v5.15c0,.47-.38.9-.9.9h-19.53c-.52,0-.89-.43-.89-.9v-31.27Z"/>
    <path class="cls-1" d="M290.05,159.29c0-.47.42-.85.89-.85h1.18l18.82,18.14h.05v-16.77c0-.47.38-.9.89-.9h5.66c.47,0,.89.43.89.9v31.79c0,.47-.42.85-.89.85h-.76c-.14,0-.52-.14-.61-.24l-18.64-18.75h-.05v17.62c0,.47-.38.9-.89.9h-5.62c-.47,0-.89-.43-.89-.9l-.05-31.79Z"/>
    <path class="cls-1" d="M337.2,165.86h-6.75c-.52,0-.89-.42-.89-.9v-5.15c0-.47.38-.9.89-.9h20.95c.52,0,.89.43.89.9v5.15c0,.47-.38.9-.89.9h-6.75v25.23c0,.47-.42.9-.9.9h-5.66c-.47,0-.9-.43-.9-.9v-25.23Z"/>
    <path class="cls-1" d="M43.6,208.19c9.44,0,16.98,7.61,16.98,17.05s-7.55,16.96-16.98,16.96-16.94-7.51-16.94-16.96,7.5-17.05,16.94-17.05ZM43.6,234.64c5.19,0,9.44-4.25,9.44-9.4s-4.25-9.49-9.44-9.49-9.39,4.3-9.39,9.49,4.25,9.4,9.39,9.4Z"/>
    <path class="cls-1" d="M68.91,209.56c0-.47.38-.9.89-.9h19.53c.52,0,.9.43.9.9v5.15c0,.47-.38.9-.9.9h-13.07v6.8h10.76c.47,0,.89.43.89.9v5.15c0,.47-.42.9-.89.9h-10.76v11.48c0,.47-.42.9-.89.9h-5.57c-.52,0-.89-.43-.89-.9v-31.27Z"/>
    <path class="cls-1" d="M117.94,209.56c0-.47.42-.9.89-.9h5.61c.52,0,.9.43.9.9v11.9h13.49v-11.9c0-.47.38-.9.89-.9h5.62c.47,0,.89.43.89.9v31.27c0,.47-.42.9-.89.9h-5.62c-.52,0-.89-.43-.89-.9v-12.42h-13.49v12.42c0,.47-.38.9-.9.9h-5.61c-.47,0-.89-.43-.89-.9v-31.27Z"/>
    <path class="cls-1" d="M160.74,209.56c0-.47.38-.9.89-.9h19.53c.52,0,.9.43.9.9v5.15c0,.47-.38.9-.9.9h-13.07v5.86h10.76c.47,0,.89.43.89.9v5.15c0,.52-.42.9-.89.9h-10.76v6.38h13.07c.52,0,.9.43.9.9v5.15c0,.47-.38.9-.9.9h-19.53c-.52,0-.89-.43-.89-.9v-31.27Z"/>
    <path class="cls-1" d="M190.52,240.5l14.77-31.79c.14-.28.47-.52.8-.52h.47c.33,0,.66.24.8.52l14.77,31.79c.28.61-.09,1.23-.8,1.23h-5.24c-.85,0-1.23-.28-1.65-1.18l-1.7-3.73h-12.83l-1.7,3.78c-.24.57-.76,1.13-1.7,1.13h-5.19c-.71,0-1.09-.61-.8-1.23ZM209.91,230.39l-3.59-7.8h-.05l-3.54,7.8h7.17Z"/>
    <path class="cls-1" d="M232.38,209.56c0-.47.38-.9.89-.9h5.61c.47,0,.9.43.9.9v25.22h11.23c.52,0,.9.43.9.9v5.15c0,.47-.38.9-.9.9h-17.74c-.52,0-.89-.43-.89-.9v-31.27Z"/>
    <path class="cls-1" d="M265.32,215.61h-6.75c-.52,0-.89-.43-.89-.9v-5.15c0-.47.38-.9.89-.9h20.95c.52,0,.89.43.89.9v5.15c0,.47-.38.9-.89.9h-6.75v25.22c0,.47-.42.9-.9.9h-5.66c-.47,0-.9-.43-.9-.9v-25.22Z"/>
    <path class="cls-1" d="M291.52,209.56c0-.47.42-.9.89-.9h5.62c.52,0,.89.43.89.9v11.9h13.49v-11.9c0-.47.38-.9.89-.9h5.62c.47,0,.89.43.89.9v31.27c0,.47-.42.9-.89.9h-5.62c-.52,0-.89-.43-.89-.9v-12.42h-13.49v12.42c0,.47-.38.9-.89.9h-5.62c-.47,0-.89-.43-.89-.9v-31.27Z"/>
  </g>
  <g>
    <path class="cls-1" d="M266.5.15c-15.12,0-26.79,6.2-34.69,12.26,6.95,8.47,11.9,19.06,14.47,31.32,3.52-2.75,7.82-4.41,12.34-4.41,13.94,0,20.3,10.62,20.3,22.76v56.63c0,3.05,2.44,5.77,5.77,5.77h32.13c3.33,0,5.75-2.72,5.75-5.77v-54.8C322.58,29.32,304.11.15,266.5.15"/>
    <path class="cls-1" d="M29.72,8.82c0-3.32,2.44-5.77,5.79-5.77h13.93c2.13,0,4.25,1.52,5.15,3.34l5.15,12.44C67.32,10.94,81.25,0,100.67,0c16.97,0,28.78,6.39,39.72,18.51,6.99-6.98,21.23-18.51,41.86-18.51,37.59,0,56.06,29.17,56.06,63.75v54.96c0,3.05-2.42,5.77-5.73,5.77h-32.13c-3.33,0-5.78-2.72-5.78-5.77v-56.77c0-12.14-6.35-22.76-20.32-22.76-10.59,0-20.31,8.8-20.31,20.65v58.88c0,3.05-2.42,5.77-5.75,5.77h-29.1c-3.33,0-5.78-2.72-5.78-5.77v-56.77c0-12.14-5.45-22.76-19.1-22.76-12.13,0-21.21,8.8-21.21,21.24v58.29c0,3.05-2.73,5.77-5.77,5.77h-31.82c-3.35,0-5.79-2.72-5.79-5.77V8.82Z"/>
  </g>
</svg>