<?xml version="1.0" encoding="UTF-8"?>
<svg id="Layer_1" xmlns="http://www.w3.org/2000/svg" version="1.1" xmlns:xlink="http://www.w3.org/1999/xlink" viewBox="0 0 217.7 154.6">
  <!-- Generator: Adobe Illustrator 29.3.1, SVG Export Plug-In . SVG Version: 2.1.0 Build 151)  -->
  <defs>
    <style>
      .st0 {
        fill: #fff;
      }
    </style>
  </defs>
  <path class="st0" d="M22.4,56.1c-1.7,0-3.3.4-4.8,1.3-1.5.9-2.6,2-3.5,3.5-.8,1.5-1.3,3.1-1.3,4.8,0,2.6.9,4.8,2.7,6.7,1.8,1.9,4.1,2.8,6.8,2.8s4.8-.9,6.7-2.8c1.8-1.8,2.7-4.1,2.7-6.7s-.9-5-2.8-6.8c-1.9-1.9-4.1-2.8-6.6-2.8h0ZM98,56.1c-1.7,0-3.3.4-4.8,1.3-1.5.9-2.6,2-3.5,3.5-.8,1.5-1.3,3.1-1.3,4.8,0,2.6.9,4.8,2.7,6.7,1.8,1.9,4.1,2.8,6.8,2.8s4.8-.9,6.7-2.8c1.8-1.8,2.7-4.1,2.7-6.7s-.9-5-2.8-6.8c-1.9-1.9-4.1-2.8-6.6-2.8h0ZM0,56.5v3.4h3.2v14.8h3.5v-14.8h3.3v-3.4H0ZM35.1,56.5l4.1,18.2h3.3l3.3-11.8,3.4,11.8h3.3l4.1-18.2h-3.4l-2.6,11.6-3.3-11.6h-2.9l-3.2,11.6-2.6-11.6h-3.4ZM60.7,56.5v18.2h3.5v-11.9l7.8,11.9h3.3v-18.2h-3.5v12l-7.8-12h-3.3ZM112.1,56.5v18.2h3.4v-8.2h5.6v-3.3h-5.6v-3.3h5.6v-3.4h-9ZM22.4,59.4c1.7,0,3.1.6,4.2,1.8,1.2,1.2,1.7,2.7,1.7,4.4s-.6,3.2-1.7,4.4c-1.2,1.2-2.6,1.8-4.2,1.8s-2.7-.5-3.9-1.4c-1.4-1.2-2.2-2.8-2.2-4.8s.6-3.3,1.7-4.5c1.1-1.2,2.6-1.8,4.2-1.8h0ZM97.9,59.4c1.7,0,3.1.6,4.2,1.8,1.2,1.2,1.7,2.7,1.7,4.4s-.6,3.2-1.7,4.4c-1.2,1.2-2.6,1.8-4.2,1.8s-2.7-.5-3.9-1.4c-1.4-1.2-2.2-2.8-2.2-4.8s.6-3.3,1.7-4.5c1.1-1.2,2.6-1.8,4.2-1.8h0Z"/>
  <path class="st0" d="M13.2,86c-3.2,0-5.9,1-8,3.1-2.2,2-3.3,4.5-3.3,7.3s.7,4,2,5.9c1.3,2,4.2,4.8,8.7,8.5,2.4,1.9,3.9,3.3,4.6,4.3.7.9,1,1.9,1,2.8s-.5,1.9-1.4,2.7c-.9.8-2,1.2-3.4,1.2-2.6,0-4.9-1.8-6.8-5.5L0,120.3c1.5,3.1,3.4,5.3,5.6,6.8,2.2,1.4,4.7,2.2,7.7,2.2s6.8-1.1,9.1-3.3c2.3-2.2,3.5-5,3.5-8.4s-.3-3.3-1-4.8c-.7-1.5-1.8-3-3.4-4.6-.6-.7-2.4-2.2-5.4-4.7-3.2-2.7-5.1-4.5-5.7-5.3-.5-.6-.7-1.3-.7-2s.3-1.3,1-1.9c.7-.6,1.5-.8,2.5-.8,2.1,0,4.2,1.4,6.2,4.2l5.8-5.1c-2.2-2.5-4.2-4.2-6-5.2-1.9-1-3.8-1.4-5.9-1.4h0ZM32.4,87.1v7.7h7.3v33.4h7.9v-33.4h7.5v-7.7h-22.7ZM83.2,87.1v41.1h7.8v-17.4c4,0,6.7-.2,8.2-.6,2.6-.7,4.6-2.1,6.1-4,1.5-1.9,2.3-4.3,2.3-7.2s-.6-4.8-1.7-6.7c-1.1-1.9-2.7-3.2-4.7-4-2-.8-5.2-1.2-9.7-1.2h-8.3ZM125.9,87.1l-15.9,41.1h8.1l3.3-8.5h16.8l3.2,8.5h8.1l-15.8-41.1h-7.9ZM156.7,87.1v24.5c0,4.9.5,8.4,1.4,10.4,1,2.1,2.5,3.8,4.7,5.1,2.2,1.4,4.8,2.1,7.8,2.1s4.3-.4,6-1.1c1.7-.7,3.2-1.8,4.5-3.3,1.3-1.5,2.2-3,2.7-4.6.5-1.6.7-4.5.7-8.6v-24.5h-7.9v25.6c0,2.8-.2,4.6-.6,5.6-.4,1-1.1,1.8-2.1,2.4-1,.6-2.2.9-3.6.9s-2.4-.3-3.3-.8c-.9-.6-1.6-1.3-2-2.3-.4-.9-.6-2.6-.6-4.9v-26.6h-7.9ZM196.8,87.1v41.1h19.2v-7.5h-11.4v-33.7h-7.8ZM91,94.7h2.2c2.4,0,4.1.3,5,.8,1.2.7,1.8,1.9,1.8,3.5s-.2,1.7-.7,2.3c-.4.6-1,1.1-1.8,1.4-.8.3-2.1.4-4.1.4h-2.5v-8.4ZM129.9,98l5.5,14.1h-11l5.5-14.1ZM63.3,120.2c-1.2,0-2.2.4-3.1,1.3-.9.8-1.3,1.9-1.3,3.1s.4,2.2,1.3,3.1c.9.9,1.9,1.3,3.1,1.3s2.2-.4,3.1-1.3c.9-.9,1.3-1.9,1.3-3.1s-.4-2.2-1.3-3.1c-.9-.8-1.9-1.3-3.1-1.3Z"/>
  <path class="st0" d="M130,140c-.2,0-.4,0-.6.3-.2.2-.3.4-.3.6s0,.4.3.6c.2.2.4.3.6.3s.4,0,.6-.3c.2-.2.3-.4.3-.6s0-.4-.3-.6c-.2-.2-.4-.3-.6-.3ZM169.1,140c-.4,0-.7,0-.9.2-.3.2-.4.4-.5.6-.1.3-.2.7-.2,1.3v1.3h-1.1v.9h1.1v7.3h1.1v-7.3h1.7v-.9h-1.7v-1.1c0-.5,0-.8,0-.9,0-.1.1-.2.3-.3.1,0,.3-.1.5-.1s.6,0,1,.2v-1c-.5-.1-.9-.2-1.2-.2h0ZM103.1,140.2v11.3h1.1v-11.3h-1.1ZM149.2,140.2v4.7c-.4-.6-.9-1-1.4-1.3-.5-.3-1.2-.4-1.8-.4-1.2,0-2.2.4-3,1.3-.8.8-1.2,1.8-1.2,3s.4,2.2,1.2,3.1c.8.8,1.8,1.3,3,1.3s1.3-.1,1.8-.4c.5-.3,1-.7,1.5-1.2v1.4h1v-11.3h-1ZM185,140.2v11.3h1.1v-11.3h-1.1ZM52.3,140.5l-5.2,11.1h1.2l1.7-3.6h4.8l1.7,3.6h1.2l-5.2-11.1h-.3ZM63.7,140.5v11.1h1.1v-5.1h.8c1.4,0,2.3,0,2.8-.2.7-.2,1.2-.5,1.6-1,.4-.5.6-1.1.6-1.8s-.2-1.3-.6-1.8c-.4-.5-.9-.8-1.5-1-.4-.1-1.3-.2-2.6-.2h-2.2ZM120.7,140.5v11.1h1.1v-5.2l4.8,5.2h1.5l-5.7-6.1,5.3-5h-1.5l-4.4,4.2v-4.2h-1.1ZM176.3,140.5v11.1h1.1v-5.1h.8c1.4,0,2.3,0,2.8-.2.7-.2,1.2-.5,1.6-1,.4-.5.6-1.1.6-1.8s-.2-1.3-.6-1.8c-.4-.5-.9-.8-1.5-1-.4-.1-1.3-.2-2.6-.2h-2.2ZM64.8,141.6h2c.7,0,1.3,0,1.6.2.3.1.6.3.8.7.2.3.3.6.3,1s0,.7-.3,1c-.2.3-.5.5-.8.7-.4.1-.9.2-1.7.2h-1.9s0-3.8,0-3.8ZM177.4,141.6h2c.7,0,1.3,0,1.6.2.3.1.6.3.8.7.2.3.3.6.3,1s0,.7-.3,1c-.2.3-.5.5-.8.7-.4.1-.9.2-1.7.2h-1.9s0-3.8,0-3.8ZM52.4,142.9l1.9,4h-3.8l1.9-4ZM136.8,143.2c-.6,0-1.2.1-1.7.4-.5.3-1,.7-1.4,1.3v-1.5h-1.1v8.2h1.1v-3c0-1.1,0-1.8.2-2.2.2-.6.5-1.1,1-1.6.5-.4,1.1-.6,1.7-.6s1,.1,1.4.4c.3.3.6.7.7,1.2,0,.3.1.9.1,1.9v3.9h1.1v-4.2c0-1.1-.1-1.9-.3-2.5-.2-.5-.6-.9-1-1.3-.5-.3-1-.5-1.6-.5h0ZM76.4,143.2c-1.4,0-2.4.5-3.2,1.5-.6.8-1,1.7-1,2.8s.4,2.1,1.1,3c.8.9,1.8,1.3,3.1,1.3s1.1,0,1.6-.3c.5-.2.9-.5,1.3-.8.4-.4.7-.8,1-1.4l-.9-.5c-.3.5-.6.9-.9,1.2-.3.2-.6.4-1,.6-.4.1-.8.2-1.2.2-.9,0-1.6-.3-2.2-.9-.6-.6-.9-1.4-.9-2.3h7.4c0-1.1-.3-2-.9-2.8-.8-1.1-1.9-1.6-3.3-1.6h0ZM86.5,143.2c-1.3,0-2.3.5-3.1,1.4-.8.8-1.1,1.8-1.1,2.9s.4,2.1,1.2,3c.8.9,1.8,1.3,3.1,1.3s2.3-.4,3.1-1.3c.8-.9,1.2-1.9,1.2-3s-.4-2.1-1.1-3c-.8-.9-1.9-1.4-3.1-1.4ZM97,143.2c-.7,0-1.3.1-1.8.4-.5.3-1,.7-1.4,1.3v-1.5h-1.1v11.2h1.1v-4.4c.4.5.9.9,1.5,1.2.5.3,1.1.4,1.8.4,1.2,0,2.1-.4,3-1.3.8-.8,1.2-1.9,1.2-3.1s-.4-2.2-1.2-3c-.8-.8-1.8-1.3-3-1.3h0ZM110.1,143.2c-1.4,0-2.4.5-3.2,1.5-.6.8-1,1.7-1,2.8s.4,2.1,1.1,3c.8.9,1.8,1.3,3.1,1.3s1.1,0,1.6-.3c.5-.2.9-.5,1.3-.8.4-.4.7-.8,1-1.4l-.9-.5c-.3.5-.6.9-.9,1.2-.3.2-.6.4-1,.6-.4.1-.8.2-1.2.2-.9,0-1.6-.3-2.2-.9-.6-.6-.9-1.4-.9-2.3h7.4c0-1.1-.3-2-.9-2.8-.8-1.1-1.9-1.6-3.3-1.6h0ZM160.8,143.2c-1.3,0-2.3.5-3.1,1.4-.8.8-1.1,1.8-1.1,2.9s.4,2.1,1.2,3c.8.9,1.8,1.3,3.1,1.3s2.3-.4,3.1-1.3c.8-.9,1.2-1.9,1.2-3s-.4-2.1-1.1-3c-.8-.9-1.9-1.4-3.1-1.4h0ZM192.1,143.2c-1.2,0-2.2.4-3,1.3-.8.8-1.2,1.8-1.2,3s.4,2.2,1.2,3.1c.8.8,1.8,1.3,3,1.3s1.3-.1,1.8-.4c.5-.3,1-.7,1.5-1.2v1.4h1v-8.2h-1v1.5c-.4-.6-.9-1-1.4-1.3-.5-.3-1.1-.4-1.8-.4h0ZM203,143.2c-.9,0-1.6.2-2.3.6-.7.4-1.2.9-1.6,1.6-.4.7-.6,1.4-.6,2.2,0,1.2.4,2.2,1.3,3,.9.8,1.9,1.2,3.2,1.2s1.6-.2,2.2-.5c.7-.3,1.2-.8,1.6-1.4l-.8-.6c-.8,1-1.7,1.4-2.9,1.4s-1.2-.1-1.8-.4c-.5-.3-.9-.7-1.2-1.2-.3-.5-.5-1.1-.5-1.7,0-.9.3-1.7,1-2.3.7-.6,1.5-1,2.5-1s2.2.5,2.9,1.4l.8-.5c-.2-.4-.5-.8-.9-1-.4-.3-.8-.5-1.3-.6-.5-.2-1-.2-1.6-.2h0ZM212.5,143.2c-1.4,0-2.4.5-3.2,1.5-.6.8-1,1.7-1,2.8s.4,2.1,1.1,3c.8.9,1.8,1.3,3.1,1.3s1.1,0,1.6-.3c.5-.2.9-.5,1.3-.8.4-.4.7-.8,1-1.4l-.9-.5c-.3.5-.6.9-.9,1.2-.3.2-.6.4-1,.6-.4.1-.8.2-1.2.2-.9,0-1.6-.3-2.2-.9-.6-.6-.9-1.4-.9-2.3h7.4c0-1.1-.3-2-.9-2.8-.8-1.1-1.9-1.6-3.3-1.6h0ZM129.5,143.4v8.2h1.1v-8.2h-1.1ZM76.4,144.2c.5,0,.9.1,1.4.3.4.2.8.5,1.1.8.3.3.5.8.6,1.3h-6.1c.2-.8.5-1.3,1-1.7.6-.5,1.3-.8,2.1-.8h0ZM110.1,144.2c.5,0,.9.1,1.4.3.4.2.8.5,1.1.8.3.3.5.8.6,1.3h-6.1c.2-.8.5-1.3,1-1.7.6-.5,1.3-.8,2.1-.8h0ZM212.6,144.2c.5,0,.9.1,1.4.3.4.2.8.5,1.1.8.3.3.5.8.6,1.3h-6.1c.2-.8.5-1.3,1-1.7.6-.5,1.3-.8,2.1-.8h0ZM96.9,144.2c.6,0,1.1.1,1.6.4.5.3.9.7,1.2,1.2.3.5.4,1.1.4,1.7s-.1,1.1-.4,1.7c-.3.5-.7.9-1.2,1.2-.5.3-1,.4-1.6.4s-1.1-.1-1.6-.4c-.5-.3-.9-.7-1.2-1.2-.3-.5-.4-1.1-.4-1.7,0-.9.3-1.7.9-2.4.6-.6,1.4-1,2.3-1h0ZM146.1,144.2c.9,0,1.7.3,2.3,1,.6.6.9,1.4.9,2.4s-.1,1.2-.4,1.7c-.3.5-.7.9-1.2,1.2-.5.3-1.1.4-1.6.4s-1.1-.1-1.6-.4c-.5-.3-.9-.7-1.2-1.2-.3-.5-.4-1.1-.4-1.7s.1-1.1.4-1.7c.3-.5.7-.9,1.2-1.2.5-.3,1-.4,1.6-.4h0ZM192.2,144.2c.9,0,1.7.3,2.3,1,.6.6.9,1.4.9,2.4s-.1,1.2-.4,1.7c-.3.5-.7.9-1.2,1.2-.5.3-1.1.4-1.6.4s-1.1-.1-1.6-.4c-.5-.3-.9-.7-1.2-1.2-.3-.5-.4-1.1-.4-1.7s.1-1.1.4-1.7c.3-.5.7-.9,1.2-1.2.5-.3,1-.4,1.6-.4h0ZM86.5,144.2c.9,0,1.6.3,2.2,1,.6.6.9,1.4.9,2.3s-.1,1.1-.4,1.7c-.3.5-.7.9-1.2,1.2-.5.3-1,.4-1.6.4s-1.1-.1-1.6-.4c-.5-.3-.9-.7-1.2-1.2-.3-.5-.4-1.1-.4-1.7,0-.9.3-1.7.9-2.3.6-.6,1.4-1,2.3-1ZM160.8,144.2c.9,0,1.6.3,2.2,1,.6.6.9,1.4.9,2.3s-.1,1.1-.4,1.7c-.3.5-.7.9-1.2,1.2-.5.3-1,.4-1.6.4s-1.1-.1-1.6-.4c-.5-.3-.9-.7-1.2-1.2-.3-.5-.4-1.1-.4-1.7,0-.9.3-1.7.9-2.3.6-.6,1.4-1,2.3-1h0Z"/>
  <path class="st0" d="M136.6,11.5c-3.1,0-5.6,2.5-5.6,5.6s2.5,5.6,5.6,5.6,5.6-2.5,5.6-5.6-2.5-5.6-5.6-5.6ZM148,25.6c-3,0-4.9.4-5,.5l-.8.2-.4.7c-.1.2-2.7,4.3-3.7,10.7-.9,5.9-.4,15,6.5,24.9.3.5,2.7,4.1,7.4,7.2,3.6,2.4,9.1,4.9,16.4,4.9s3.9-.2,6-.5c0,0-.2,0-.3,0l-.9-.2-.3-.5c-1.8-.9-3.4-1.8-4.8-2.8-13.4,0-19.9-9.8-20.2-10.3h0c-10.3-14.8-4.8-27.3-3.2-30.4,2.1-.3,7.6-.7,14,2,.6-1.3,1.2-2.5,1.9-3.6-2.3-1-4.4-1.6-6.3-2-2.4-.5-4.6-.7-6.3-.7h0ZM164.3,30.1c-.7,1.1-1.3,2.3-1.9,3.6,3.3,2,6.6,4.9,9.6,9.2.7-1.2,1.2-1.9,1.3-2.1.4-.5.7-1,1.1-1.5-3.3-4.3-6.8-7.2-10.2-9.2h0ZM176.9,42.9c0,0-.1.2-.2.3h0c-.1.2-1.1,1.6-2.2,3.9,1.9,4.2,3.7,11.5,0,20.2.3.6.6,1.3.9,1.9,1.3-.7,2.5-1.4,3.6-2.2,2.4-6.8,1.9-12.7.9-16.8-.8-3.2-2-5.8-2.9-7.4h0Z"/>
  <path class="st0" d="M174.6,0C171.6,0,169.1,2.5,169.1,5.6s2.5,5.6,5.6,5.6,5.6-2.5,5.6-5.6S177.7,0,174.6,0ZM174.6,15.9l-.8.3c-.2,0-4.7,1.9-9.2,6.7-1.3,1.4-2.8,3.2-4,5.3-.7,1.1-1.3,2.3-1.9,3.6-1.8,4-3.1,9-3.1,15.2,0,.6,0,4.9,2,10.2,1.5,4,4.6,9.2,10.5,13.4,1.4,1,3,2,4.8,2.8l-.2-.3c-.5-.9-1-1.8-1.4-2.7-.6-1.2-1.1-2.5-1.5-3.7-10.4-7.8-10.1-19.1-10.1-19.6h0c0-5.5,1-9.9,2.6-13.5.6-1.3,1.2-2.5,1.9-3.6,3.6-5.9,8.5-8.8,10.4-9.7,1.9.9,6.6,3.8,10.3,9.6,1.2-.7,2.4-1.3,3.6-1.8-1.3-2.1-2.7-3.8-4-5.2-4.5-4.7-9-6.6-9.2-6.7l-.8-.3Z"/>
  <path class="st0" d="M212.1,10.6c-3.1,0-5.6,2.5-5.6,5.6s2.5,5.6,5.6,5.6,5.6-2.5,5.6-5.6-2.5-5.6-5.6-5.6ZM200.9,25.6c-1.8,0-3.9.2-6.3.7-1.8.4-3.9,1-6,1.9-1.2.5-2.4,1.1-3.6,1.8-3.5,2-7.1,5-10.4,9.4-.4.5-.7,1-1.1,1.5-.1.2-.7.9-1.3,2.1-.9,1.6-2.1,4.2-2.9,7.4-1,4.1-1.5,9.9.8,16.5.4,1.2.9,2.4,1.5,3.7.4.9.9,1.8,1.4,2.7l.2.3.3.5.9.2c0,0,.2,0,.3,0h.1s0,0,0,0c2.1.4,4,.5,5.8.5,7.3,0,12.8-2.5,16.4-4.9,4.7-3.2,7.1-6.7,7.4-7.2,6.9-9.9,7.3-19,6.5-24.9-.9-6.4-3.6-10.5-3.7-10.7l-.4-.7-.8-.2c-.1,0-2-.5-5-.5h0ZM200.5,29.6c1.6,0,2.8.1,3.6.2,1.6,3.1,7.1,15.7-3.2,30.4h0c0,.2-6.5,10.1-19.8,10.4-1.1,0-2.3,0-3.5-.1-.6,0-1.1-.1-1.7-.2-.2-.3-.3-.6-.5-.9-.3-.6-.6-1.3-.9-1.9-3.7-8.7-1.9-16,0-20.2,1-2.3,2-3.7,2.2-3.8h0c0-.2.1-.3.2-.4,3.1-4.4,6.6-7.4,9.9-9.4,1.2-.7,2.4-1.3,3.6-1.8,3.9-1.6,7.5-2.1,10.1-2.1h0Z"/>
  <path class="st0" d="M191.6,57.2c-1.5,4-4.6,9.2-10.5,13.4-1.1,0-2.3,0-3.5-.1-.6,0-1.1-.1-1.7-.2-.2-.3-.3-.6-.5-.9,1.3-.7,2.5-1.4,3.6-2.2,10.9-7.9,10.5-19.8,10.5-19.9h0c0-5.6-1.1-10-2.7-13.6,1.2-.7,2.4-1.3,3.6-1.8,1.8,4,3.1,9.1,3.1,15.3,0,.6,0,4.9-2,10.2"/>
</svg>