<?xml version="1.0" encoding="UTF-8"?>
<svg xmlns="http://www.w3.org/2000/svg" version="1.1" viewBox="0 0 2500 1527">
  <!-- Generator: Adobe Illustrator 29.3.1, SVG Export Plug-In . SVG Version: 2.1.0 Build 151)  -->
  <defs>
    <style>
      .st0 {
        fill: #fff;
      }
    </style>
  </defs>
  <g id="Layer_1" image-rendering="optimizeQuality" shape-rendering="geometricPrecision" text-rendering="geometricPrecision">
    <g>
      <path class="st0" d="M1045.5,447.9h-54l92.3-153.4,35.7,59.5h-34.3v153.5h329.7v-153.5h-34.3l35.7-59.5,92.3,153.4h-54v153.4h300.7v-153.4h-63.2l-177.1-294.4h48.9V0h-294.9v153.5h48.8l-67.7,112.4-67.7-112.5h48.8V0h-294.9v153.4h48.9l-177.1,294.5h-63.2v153.4h300.7v-153.4ZM1025.5,581.9h-261.4v-114.1h54.6l200.8-333.8h-63.9V19.9h255.4v114.1h-63.9l102.4,170.3,102.5-170.3h-63.9V19.9h255.6v114.1h-63.9l200.8,333.8h54.7v114.1h-261.4v-114.1h69.1l-127-211.3-70.6,117.3h49.4v114.1h-290.3v-114.1h49.4l-70.7-117.3-127.1,211.2h69.2v114.1Z"/>
      <path class="st0" d="M113.9,1288.5h0c-29.8,0-55.3,10-76.7,29.8-24.6,22.8-36.9,52.4-36.9,88.6s10.6,64.2,32,86.6,47.6,33.5,79,33.5,57.4-11.4,79.2-34.3c21.9-22.9,32.7-51.6,32.7-86.3s-10.8-61.6-32.5-84.1c-21.6-22.5-47.2-33.7-76.8-33.7ZM163.8,1489.8c-13.9,16.7-31.5,25-52.9,25s-36.1-7.6-48.3-22.8c-15.9-20.1-23.8-48.7-23.8-86s7.7-63.9,23-82.8c12.3-15.1,28.6-22.7,48.9-22.7h0c21.8,0,38.7,7.7,51,22.9,15.3,19.1,23,48.3,23,87.3s-7,62.3-20.9,79.1Z"/>
      <path class="st0" d="M761,851.1c3.5,2,5.8,4.4,7,7.3,1.4,3.7,2.2,11.3,2.2,22.8v147.6c0,13.6-1.3,22.2-4,25.8-4.3,5.4-11.1,8.2-20.6,8.2h-8.1v6.2h97.7v-6.2h0c0,0-8.2,0-8.2,0-5.4,0-10.4-1.3-15.2-4-3.6-2-6-4.4-7.1-7.3-1.4-3.6-2.2-11.3-2.2-22.8v-147.6c0-13.6,1.4-22.2,4.2-25.8,4.3-5.4,11-8.2,20.3-8.2h8.2v-6.2h-97.7v6.2h8.1c5.4,0,10.7,1.4,15.5,4Z"/>
      <path class="st0" d="M242.1,1293.5v6.2h8.1c5.4,0,10.8,1.4,15.5,4,3.5,2,5.8,4.4,7,7.3,1.4,3.7,2.2,11.3,2.2,22.8v147.6c0,13.6-1.3,22.2-4,25.8-4.3,5.4-11.2,8.2-20.6,8.2h-8.1v6.2h97.7v-6.2h-8.1c-5.4,0-10.5-1.3-15.4-4-3.5-2-5.9-4.4-7-7.3-1.4-3.6-2.2-11.3-2.2-22.8v-71.9h41.3c7.7,0,13.4,1,17.3,3.2,3.9,2.1,6.9,5.2,9.1,9.4,2.2,4.1,3.3,10.7,3.5,19.5h6.2v-77.4h-6.2c-1.5,12.6-4.4,20.9-8.9,25.1-4.4,4.1-11.5,6.2-21.1,6.2h-41.3v-89.6c0,0,50.1,0,50.1,0,11.9,0,20.5,1.2,26.2,3.4,5.6,2.2,10.4,5.9,14.3,10.9,3.8,5,7.2,12.9,10.1,23.6h5.9l-2.4-50.2h-169.2Z"/>
      <path class="st0" d="M1662.2,1049.9c-8.1,7.4-19.2,11.1-33.2,11.1s-23.2-2.6-33.4-8.1c-10.1-5.4-17.7-12.1-22.6-20.3-4.9-8.1-8.8-20.4-11.7-36.7h-6.2v78.1h6.2c.8-5.3,2-8.8,3.6-10.5,1.6-1.7,3.9-2.5,6.7-2.5s9.9,1.8,20.8,5.4c11,3.6,18.1,5.6,21.6,6.2,5.9,1,12,1.6,18.7,1.6,21.1,0,38.3-6.3,51.7-18.8,13.4-12.5,20.1-27.3,20.1-44.6s-2.1-17.7-6.3-26.1c-4.2-8.3-10.2-15.5-18-21.6-7.8-6-22.3-14.8-43.7-26.3-26.1-14-42.6-25.3-49.7-33.6-4.8-5.8-7.3-12.1-7.3-19s3.9-17.3,11.5-24.3,17.3-10.6,28.9-10.6,20.3,2.6,29.9,7.9c9.7,5.3,17.1,12.4,22.4,21.3,5.2,9,8.8,21,10.8,36.1h6.2v-78.8h-.1c0,0-6.2,0-6.2,0-1.2,5.2-2.6,8.7-4.5,10.5-1.8,1.7-4.3,2.6-7.2,2.6s-7-1.4-13.3-4.2c-13.6-5.9-26.5-8.9-38.6-8.9-19.4,0-35.4,5.9-48,17.7-12.5,11.8-18.9,25.9-18.9,42.2s2.1,18,6.4,25.9c4.3,7.8,10.6,15,18.8,21.5,8.2,6.4,22.2,15.2,41.7,26,19.6,10.9,31.5,18,35.9,21.4,6.4,5,11.2,10.3,14.3,16.1,3.1,5.8,4.6,11.4,4.6,17,0,10.1-4.1,18.8-12.2,26.3Z"/>
      <path class="st0" d="M1800.6,855.3c4.3-5.4,11-8.2,20.3-8.2h8.2v-6.2h-97.7v6.2h8.1c5.4,0,10.7,1.4,15.5,4,3.5,2,5.8,4.4,7,7.3,1.4,3.7,2.2,11.3,2.2,22.8v147.6c0,13.6-1.3,22.2-4,25.8-4.3,5.4-11.2,8.2-20.6,8.2h-8.1v6.2h97.7v-6.2h0c0,0-8.2,0-8.2,0-5.4,0-10.4-1.3-15.2-4-3.6-2-6-4.4-7.1-7.3-1.4-3.6-2.2-11.3-2.2-22.8v-147.6c0-13.6,1.4-22.2,4.2-25.8Z"/>
      <path class="st0" d="M504.7,778.4v-8.1h-104.4v8.1h.2c0-.1,11.1-.1,11.1-.1,11.2,0,19.6,3.2,25.3,9.6,4.1,4.7,6.1,16.2,6.1,34.8v120.3c0,31.5-2.9,53.9-8.5,67.2-5.6,13.2-16.1,24.1-31.4,32.5s-32.7,12.7-52.1,12.7-27.9-2.7-38.4-8.1c-10.4-5.5-18.4-12.3-24-20.6-5.5-8.3-9.3-20-11.5-34.8-2.1-14.9-3.2-28.1-3.2-39.6v-129.4c0-16.6,1.8-27.6,5.5-32.8,5.2-7.7,13.9-11.6,26.2-11.6h11.3v-8.1h-128.2v8.1h11.1c11.2,0,19.3,2.8,24.3,8.5,5,5.7,7.5,17.6,7.5,35.9v116.1c0,35.8,2.3,60.1,7,73.1,6.9,19,18.8,34.1,35.6,45.3,16.7,11.3,41.3,16.9,73.7,16.9s53.2-5.9,70.4-17.6,28.9-25.8,34.8-42.3c5.9-16.5,8.8-39.5,8.8-69.3v-120.4c0-16.5,1.5-27,4.5-31.5,6.3-9.8,15.2-14.6,26.9-14.6h11.1Z"/>
      <path class="st0" d="M1129.5,1050.7c-1.3,3.6-3.7,6.3-7.4,8.1-4.8,2.6-9.9,3.9-15.3,3.9h-8.1v6.2h175.7l19.7-57.1h-6.9c-7.3,14-14.4,24.5-21.3,31.4-5.4,5.2-10.9,8.8-16.7,10.6-5.8,1.8-15.2,2.7-28,2.7h-38.6c-6.2,0-10.5-.6-12.8-2-2.2-1.3-3.8-3-4.7-5.2-.9-2.2-1.3-8.3-1.3-18.4v-75.2h50.2c9.6,0,16.6,1.2,21.2,3.4,4.5,2.2,7.9,5.3,9.9,9.2,1.6,3.2,3.2,10.4,4.7,21.5h6.2v-79.5h-6.2c-.7,12.9-3.9,22-9.7,27.2-4.3,3.9-13,5.9-26,5.9h-50.2v-90.1h0c0,0,62.5,0,62.5,0,11.3,0,19.2.9,23.7,2.5,5.6,2.4,9.8,5.8,12.7,10.4,2.8,4.5,5.4,12.8,7.8,24.9h6.6l-2.4-50.2h-175.8v6.2h8.1c9.5,0,16.2,2.2,20.3,6.7,2.9,3.3,4.4,12.2,4.4,26.6v148.3c0,11.1-.6,18.4-2,22Z"/>
      <path class="st0" d="M1378,962.6c1.6,0,3.2.1,4.6.1,3.5,0,8-.1,13.6-.3l77.5,106.6h61.1v-6.1c-12.4-1.3-22.6-4.4-30.2-9.4-7.7-4.9-17-15-27.7-30l-47.2-65.3c19.2-4.3,33.3-11.6,42.5-21.9,9.1-10.4,13.7-22.5,13.7-36.5s-4-24.4-12-33.9c-7.9-9.4-17.7-16-29.2-19.6-11.5-3.5-29.3-5.3-53.6-5.3h-83v6.2h8.5c8.6,0,15.1,2.4,19.5,7.4,3.2,3.4,4.7,12.3,4.7,26.6v147.6c0,12.9-1.2,21.2-3.5,24.6-4.1,6.2-11,9.4-20.7,9.4h-8.5v6.2h97.7v-6.2h-8.9c-8.5,0-14.8-2.4-19.1-7.4-3.2-3.5-4.7-12.3-4.7-26.6v-66.4c1.8.1,3.5.2,5.1.2ZM1372.9,951.7v-95c10.9-2.1,19.6-3.1,26.1-3.1,14.5,0,26.2,4.5,35,13.4,8.7,9,13.2,20.5,13.2,34.8s-5.5,26.6-16.4,36c-10.9,9.4-27.1,14.1-48.6,14.1s-2.2,0-3.8-.1c-1.6,0-3.4,0-5.5,0h0Z"/>
      <polygon class="st0" points="660.9 1526.9 660.9 1526.9 660.9 1526.9 660.9 1526.9"/>
      <path class="st0" d="M1969.6,1288.5h0c-29.8,0-55.3,10-76.7,29.8-24.6,22.8-36.9,52.4-36.9,88.6s10.6,64.2,32,86.6,47.6,33.5,79,33.5,57.4-11.4,79.2-34.3c21.9-22.9,32.7-51.6,32.7-86.3s-10.8-61.6-32.5-84.1c-21.6-22.5-47.2-33.7-76.8-33.7ZM2019.4,1489.8c-13.9,16.7-31.5,25-52.9,25s-36.1-7.6-48.3-22.8c-15.9-20.1-23.8-48.7-23.8-86s7.7-63.9,23-82.8c12.3-15.1,28.6-22.7,48.9-22.7h0c21.8,0,38.7,7.7,51,22.9,15.2,19.1,23,48.3,23,87.3s-7,62.3-20.9,79.1Z"/>
      <path class="st0" d="M2154.8,1029.5c0,12.8-1.3,21-3.7,24.6-4.1,5.8-11,8.7-20.8,8.7h-8.2v6.2h97.7v-6.2h-7.5c-9.3,0-16.1-2.3-20.4-7-3.2-3.5-4.8-12.3-4.8-26.4v-58l54.8-85.7c6.7-10.9,12.3-18.8,16.9-23.6,4.7-4.8,9.7-8.5,15.3-11.1,5.6-2.6,9.8-3.9,12.8-3.9h4.4v-6.2h-79.6c0-.1,0,6.1,0,6.1,6,0,10.5.7,13.6,2.1,3.1,1.4,5.4,3.3,7,5.8,1.6,2.5,2.4,5.3,2.4,8.5,0,5.1-3.3,13-10.1,23.5l-44.9,70.3-47.2-73.5c-6.8-10.6-10.3-17.8-10.3-21.9s2.2-8.6,6.6-11c4.4-2.5,9.3-3.7,14.6-3.7h5.1v-6.2h-97.3v6.2c4.3,0,7.5.6,9.7,1.7,8.3,3.9,13.8,7.2,16.4,10,2.6,2.8,7.6,9.8,15,20.9l62.4,96.4v53.3Z"/>
      <path class="st0" d="M2477.9,1508c-5.2-4.6-11-14.4-17.4-29.7l-79.3-189.7h-5.7l-80.2,187.7c-7,16.5-13.3,27.4-19,32.8-2.8,2.7-9,4.9-18.5,6.6v6.2h71.9v-6.2c-11-.8-18.1-2.5-21.4-5.1-3.3-2.6-5-5.7-5-9.1s2-11,5.8-19.9l15.2-35.7h88.5l13.5,32.5c4.5,10.6,6.7,18.4,6.7,23.4s-1.6,6.8-4.8,9.4c-3.2,2.6-9.4,4.1-18.4,4.5v6.2h89.9v-6.2c-9.4-.5-16.6-3-21.8-7.6ZM2329.6,1433.4l39.4-92,38.4,92h-77.9Z"/>
      <path class="st0" d="M1876.5,857.8c4.5-1.6,12.1-2.4,22.7-2.4h27.3v174.1c0,12.8-1.3,21-3.7,24.6-4.1,5.8-11,8.7-20.8,8.7h-8.2v6.2h97v-6.2h-7.9c-8.9,0-15.4-2.3-19.6-7-3.1-3.5-4.5-12.3-4.5-26.4v-174.1h32.1c9.4,0,17,1.6,22.8,4.7,5.8,3,10.4,7.9,13.9,14.3,2.1,4,3.8,10.8,5.1,20.2h6.4l-2.4-53.6h-186.5s-2.4,53.6-2.4,53.6h6.4c.8-10.4,3.3-18.5,7.4-24.6,4.2-6,9.1-10.1,15-12.3Z"/>
      <path class="st0" d="M2235.9,1308.2c9.4,0,17,1.6,22.8,4.7,5.8,3,10.4,7.8,13.9,14.3,2.1,4,3.8,10.8,5.1,20.2h6.4l-2.4-53.6h0c0,0-186.5,0-186.5,0l-2.4,53.6h6.4c.8-10.3,3.3-18.5,7.4-24.5,4.2-6,9.1-10.1,15-12.3,4.5-1.6,12.1-2.4,22.7-2.4h27.3v174.1c0,12.8-1.3,20.9-3.7,24.6-4.1,5.8-11,8.7-20.8,8.7h-8.2v6.2h97v-6.2h-7.9c-8.9,0-15.4-2.3-19.6-7-3.1-3.5-4.5-12.3-4.5-26.3v-174.1h32.1Z"/>
      <path class="st0" d="M974.3,1074.2l79.2-193.9c4.6-11.4,9.8-19.9,15.8-25.4,4.1-3.7,10.3-6.3,18.3-7.8v-6.2h-.1c0,0-69.8,0-69.8,0v6.2c1.3.2,2.3.4,2.9.5,7.7,1.2,13.2,3.3,16.5,6.3,3.2,2.9,4.9,6,4.9,9.3,0,5-2.6,14-7.9,27l-53.8,131.9-57.9-133.5c-5.1-11.9-7.7-20.6-7.7-26.2s1.6-7.3,4.7-9.9c3.2-2.6,10-4.4,20.5-5.4v-6.2h-93v6.2c7,.6,12.4,1.8,16.5,3.8,4.1,2,7.5,4.7,10.4,8.2,1.7,2.2,4.8,8.5,9.2,18.6l85.3,196.4h6.2Z"/>
      <path class="st0" d="M505.8,855.5c3.4,2.5,8.4,7.6,15,15.3v158.6c0,12.8-1.3,21-3.7,24.6-4.1,5.8-11.1,8.7-20.9,8.7h-8v6.2h80.2v-6.2h-8.1c-9,0-15.7-2.3-20-7-3.1-3.5-4.6-12.3-4.6-26.4v-140.5l150.1,183.7h6.1v-192.2c0-12.8,1.3-20.9,3.7-24.6,4.1-5.8,11-8.7,20.8-8.7h8.1v-6.2h-80.2v6.2h8.1c9.1,0,15.7,2.4,19.9,7.1,3.2,3.5,4.8,12.3,4.8,26.3v131.7l-139.7-171.3h-61.3c0-.1,0,6.1,0,6.1,6.6,0,11.5.5,14.8,1.5,6.6,2.2,11.6,4.5,15,7Z"/>
      <path class="st0" d="M1811.3,1415.8c-7.8-6-22.3-14.8-43.7-26.3-26.2-14-42.7-25.3-49.7-33.6-4.8-5.8-7.3-12.1-7.3-19s3.8-17.2,11.5-24.3c7.6-7.1,17.3-10.6,28.9-10.6s20.3,2.6,29.9,7.9c9.7,5.3,17.1,12.4,22.4,21.3,5.2,9,8.8,21,10.8,36.1h6.2v-78.8h0c0,0-6.2,0-6.2,0-1.2,5.2-2.6,8.7-4.5,10.5-1.8,1.7-4.2,2.6-7.1,2.6s-7-1.4-13.3-4.2c-13.6-5.9-26.5-8.9-38.6-8.9-19.4,0-35.4,5.9-48,17.7-12.5,11.8-18.9,25.9-18.9,42.2s2.1,18,6.4,25.9c4.3,7.8,10.5,15.1,18.8,21.5,8.2,6.4,22.2,15.2,41.7,26,19.6,10.9,31.5,18,35.9,21.4,6.4,5,11.2,10.3,14.3,16.1,3,5.8,4.6,11.4,4.6,17,0,10.1-4.1,18.8-12.2,26.3-8.1,7.4-19.2,11.1-33.2,11.1s-23.2-2.6-33.4-8.1c-10.2-5.4-17.7-12.1-22.7-20.3-4.9-8.1-8.8-20.4-11.7-36.7h-6.2v78.1h6.2c.8-5.3,2-8.8,3.6-10.5,1.6-1.7,3.9-2.5,6.7-2.5s9.9,1.8,20.8,5.4c11,3.6,18.1,5.6,21.6,6.2,5.9,1,12,1.6,18.7,1.6,21.1,0,38.3-6.3,51.7-18.8,13.4-12.5,20.1-27.3,20.1-44.6s-2.1-17.7-6.3-26.1c-4.2-8.3-10.2-15.5-18-21.6Z"/>
      <path class="st0" d="M830.7,1509.7c-4.1-4.5-6.2-16-6.2-34.3v-194c0-16.6,1.6-27.3,4.8-32.1,5.4-7.7,14.4-11.5,27.3-11.5h10.4v-8.1h-84.3l-106.2,232.3-107.1-232.3h-85.2v8.1c12.3,0,21.2,1.4,26.8,4.3,5.5,2.9,9.4,6.4,11.5,10.7,2.9,5.8,4.4,15.4,4.4,28.5v194c0,16.7-1.6,27.3-4.8,32.1-5.4,7.7-14.3,11.5-27,11.5h-10.7v8.1h104.4v-8.1h-10.6c-11.9,0-20.5-3.1-26-9.2-4-4.5-6-16-6-34.3v-198.5l114.7,250h7.1l114.3-250v198.5c0,16.7-1.6,27.3-4.8,32.1-5.2,7.7-14.2,11.5-27,11.5h-10.7v8.1h127.3v-8.1h-10.4c-11.9,0-20.5-3.1-26-9.2Z"/>
      <path class="st0" d="M1387.9,1299.7h8c9.1,0,15.7,2.4,19.9,7.1,3.2,3.5,4.8,12.3,4.8,26.3v131.7l-139.7-171.3h-131.4v6.2h8c9.1,0,15.7,2.4,19.9,7.1,3.2,3.5,4.8,12.3,4.8,26.3v131.7l-139.7-171.3h-152.7v6.2h8.1c5.4,0,10.7,1.4,15.5,4,3.5,2,5.8,4.4,7,7.3,1.4,3.7,2.2,11.3,2.2,22.8v147.6c0,13.6-1.3,22.2-4,25.8-4.3,5.4-11.2,8.2-20.6,8.2h-8.1v6.2h97.7v-6.2h-8.2c-5.4,0-10.4-1.3-15.2-4-3.6-2-6-4.4-7.1-7.3-1.4-3.6-2.2-11.3-2.2-22.8v-147.6c0-13.6,1.4-22.2,4.2-25.8,4.3-5.4,11-8.2,20.3-8.2h3l.2,1.1h10c0,0,.2,0,.2,0h.2c0,0,.2.1.2.1h.6c0,0,0,0,0,0h.1c0,0,0,0,0,0h.1c0,0,1,0,1,0h.1c0,0,0,0,0,0h.1c0,0,0,0,0,0h.1c0,0,0,0,0,0h.1c0,0,0,0,0,0h.1c0,0,.1.1.1.1h.2c0,0,.2.1.2.1,6.6,2.2,11.6,4.5,15,7,3.4,2.5,8.4,7.6,15,15.3v158.6c0,12.8-1.3,20.9-3.7,24.6-4.1,5.8-11.1,8.7-20.9,8.7h-8.1v6.2h80.2v-6.2h-8.1c-9,0-15.7-2.3-20-7-3-3.5-4.6-12.3-4.6-26.3v-140.5l150.1,183.7h6.1v-192.2c0-12.8,1.3-20.9,3.7-24.6l.2-.3.2-.2.2-.2.2-.2.2-.2h0c0,0,.2-.3.2-.3h0c0,0,.2-.3.2-.3h0c0,0,.2-.2.2-.2h0c0,0,.2-.2.2-.2h0c0,0,.2-.2.2-.2h0c0,0,.2-.2.2-.2h0c0,0,.2-.2.2-.2h0c0,0,.2-.2.2-.2h0c0,0,.2-.2.2-.2h0c0,0,.2-.2.2-.2h0c0,0,.2-.2.2-.2h.1c0,0,.2-.2.2-.2h.1c0,0,.2-.2.2-.2h.1c0,0,.2-.2.2-.2h.1c0,0,.1-.2.1-.2h.1c0-.1.1-.2.1-.2h.1c0-.1.1-.2.1-.2h.2c0-.1.1-.2.1-.2h.2c0-.1.1-.2.1-.2h.2c0-.1.1-.2.1-.2h.2c0-.1.1-.2.1-.2h.2c0-.1.1-.2.1-.2h.2c0-.1.1-.2.1-.2h.2c0-.1.1-.2.1-.2h.2c0-.1.1-.2.1-.2h.2c0-.1,0-.2,0-.2h.2c0-.1,0-.2,0-.2h.2c0-.1,0-.2,0-.2h.2c0-.1,0-.2,0-.2h.3c0-.1,0-.1,0-.1h.3c0-.1,0-.1,0-.1h.3c0-.1,0-.1,0-.1h.3c0-.1,0-.1,0-.1h.3c0-.1,0-.1,0-.1l.7-.2h.3c0-.1.3-.2.3-.2h.3c0,0,.3-.1.3-.1h.4c0,0,0,0,0,0h.3c0,0,0,0,0,0h.3c0,0,0,0,0,0h.3c0,0,0,0,0,0h.3c0,0,0,0,0,0h.3c0,0,0,0,0,0h.3c0,0,.1,0,.1,0h.3c0,0,.1,0,.1,0h.3c0,0,.5,0,.5,0h.3c0,0,.1,0,.1,0h.3c0,0,13.4,0,13.4,0h.2c0,0,0,0,0,0h.2c0,0,.2,0,.2,0h.2c0,0,.2.1.2.1h.2c0,0,.2.1.2.1h.2c0,0,.9,0,.9,0h.1c0,0,0,0,0,0h.1c0,0,0,0,0,0h.1c0,0,0,0,0,0h.1c0,0,.1.1.1.1h.2c6.6,2.2,11.6,4.5,15,7,3.4,2.5,8.4,7.6,15,15.3v158.6c0,12.8-1.3,20.9-3.7,24.6-4.1,5.8-11.1,8.7-20.9,8.7h-8.1v6.2h80.2v-6.2h-8.1c-9,0-15.7-2.3-20-7-3.1-3.5-4.6-12.3-4.6-26.3v-140.5l150.1,183.7h6.1v-192.2c0-12.8,1.3-20.9,3.7-24.6,4.1-5.8,11-8.7,20.8-8.7h8.1v-6.2h-80.2v6.2Z"/>
      <path class="st0" d="M1636.5,1496.1c-5.4,5.2-10.9,8.8-16.7,10.6s-15.2,2.7-28,2.7h-38.6c-6.2,0-10.5-.6-12.8-2-2.2-1.3-3.8-3-4.7-5.2-.9-2.2-1.3-8.3-1.3-18.4v-75.2h50.2c9.6,0,16.6,1.2,21.2,3.4,4.5,2.2,7.9,5.3,9.9,9.2,1.6,3.2,3.2,10.4,4.7,21.5h6.2v-79.5h-6.2c-.7,12.9-3.9,22-9.7,27.2-4.3,3.9-13,5.9-26,5.9h-50.2v-90.1h0c0,0,62.5,0,62.5,0,11.3,0,19.2.9,23.7,2.5,5.5,2.4,9.8,5.8,12.7,10.4,2.8,4.5,5.4,12.8,7.8,24.9h6.6l-2.4-50.2h-175.8v6.2h8.1c9.5,0,16.2,2.2,20.3,6.7,2.9,3.3,4.4,12.2,4.4,26.6v148.3c0,11.1-.6,18.4-2,22-1.3,3.6-3.7,6.3-7.4,8.1-4.8,2.6-9.9,3.9-15.3,3.9h-8.1v6.2h175.7l19.7-57.1h-6.9c-7.3,14-14.4,24.5-21.3,31.4Z"/>
      <polygon class="st0" points="1083.4 218.5 1188.8 393.6 1124.2 393.6 1124.2 468.4 1375.3 468.4 1375.3 393.6 1310.7 393.6 1416.1 218.5 1577.9 487.5 1493.6 487.5 1493.6 562.2 1715.7 562.2 1715.7 487.5 1669.6 487.5 1445.1 114.4 1524.1 114.4 1524.1 39.6 1308 39.6 1308 114.4 1387 114.4 1249.7 342.5 1112.5 114.4 1191.5 114.4 1191.5 39.6 975.4 39.6 975.4 114.4 1054.4 114.4 829.9 487.5 783.8 487.5 783.8 562.2 1005.9 562.2 1005.9 487.5 921.6 487.5 1083.4 218.5"/>
    </g>
  </g>
</svg>