<?xml version="1.0" encoding="UTF-8"?>
<svg id="Layer_1" data-name="Layer 1" xmlns="http://www.w3.org/2000/svg" viewBox="0 0 533.06 310.29">
  <defs>
    <style>
      .cls-1 {
        fill: #fff;
      }
    </style>
  </defs>
  <g>
    <path class="cls-1" d="M247.18,7.28c4.33-.02,13.89-3.09,19-3.97,74.18-12.7,157.15,11.08,203.91,71.85,8.43,10.96,16.27,23.79,20.66,36.87h-116.88c-1.78-1.77-2.34-4.64-3.43-6.89-20.74-43.04-57.58-73.69-101.97-90.51-4.44-1.68-17.28-6.68-21.29-6.84v-.52Z"/>
    <path class="cls-1" d="M247.18,7.28v.52c-1.81-.07-8.48,2.26-10.72,2.96-49.44,15.4-95.96,51.8-115.25,100.7l-118.12.31c13.04-32.5,37.52-59.46,66.82-78.18C116.36,3.9,173.37-5.81,227.68,3.3c5.39.9,14.75,4,19.5,3.98Z"/>
  </g>
  <path class="cls-1" d="M354.4,267.51c28.15-2.44,28.51,47.32-2.5,42.44-19.78-3.11-20.92-40.41,2.5-42.44ZM354.39,272.14c-15.68,2.1-15.45,31.79.44,33.35,19.9,1.96,19.57-36.03-.44-33.35Z"/>
  <path class="cls-1" d="M467.01,309.15h-4.65s0-6.19,0-6.19l-3.09,3.36c-3.59,3.28-8.47,3.83-13.16,3.34-12.2-1.26-13.88-17.56-2.86-22.98,1.28-.63,6.35-2.3,7.5-2.3h11.09c.83-10.83-6.82-14.06-16.27-10.86-.84.29-4.59,2.4-4.88,2.08-.44-5.3-.12-5.57,4.64-6.97,7.38-2.16,16.8-2.07,20.39,5.94.22.48,1.29,3.67,1.29,3.87v30.7ZM461.85,288.51h-8c-1.3,0-6.12,1.22-7.43,1.86-1.47.72-4.22,3.09-4.59,4.7-2.02,8.96,6.4,12.91,13.77,9.13,5.91-3.03,6.71-9.69,6.24-15.69Z"/>
  <path class="cls-1" d="M119.2,290.06c.27,12.28,8.85,18,20.65,14.72,1.84-.51,3.24-1.77,5.15-1.81-.24,1.13.38,4.39-.07,5.09-1.12,1.74-12.33,2.35-14.63,2.13-14.49-1.38-18.64-17.05-15.38-29.29,4.68-17.56,28.72-18.81,32.51.29.25,1.26,1.43,8.89-.12,8.89h-28.12ZM142.42,285.93c.29-19.19-22.03-17.99-23.22,0h23.22Z"/>
  <path class="cls-1" d="M268.85,309.15h-4.65s0-6.19,0-6.19c-4.11,5.61-9.35,7.41-16.24,6.7-12.04-1.24-13.88-17.25-3.19-22.79,1.56-.81,6.78-2.49,8.34-2.49h10.58c.8-11.64-7.75-14.1-17.44-10.47-1.37.51-2.3,1.58-3.72,1.69.24-1.17-.39-4.32.08-5.08.13-.21,3.89-1.7,4.56-1.89,7.14-2.04,16.13-2.16,19.98,5.31.34.66,1.7,4.06,1.7,4.49v30.7ZM263.69,288.51h-9.03c-1.29,0-6.24,1.56-7.46,2.35-9.36,6.02-1.16,19.19,10.25,13.34,5.91-3.03,6.71-9.69,6.24-15.69Z"/>
  <path class="cls-1" d="M422.63,309.15h-5.68v-27.61c0-.99-1.35-4.26-1.97-5.26-3.72-6.08-13.16-4.5-16.84.91-1.2,1.77-2.87,6.98-2.87,9v22.96h-5.16v-40.77h5.16s0,6.19,0,6.19c6.39-9.48,22.51-10.28,26.17,1.95.36,1.2,1.18,5.02,1.18,6.05v26.58Z"/>
  <path class="cls-1" d="M224.47,309.15h-5.68v-28.12c0-2.04-2.34-6.02-4.15-7.2-7.17-4.67-15.31,1.32-16.88,8.87-.13.65-.64,4.08-.64,4.52v21.93h-5.16v-40.77c6.87-.86,4.7,1.56,5.42,6.71,3.84-8.61,18.42-10.62,23.91-2.76,1.4,2.01,3.18,7.36,3.18,9.72v27.09Z"/>
  <path class="cls-1" d="M68.12,309.15h-5.16v-27.61c0-.99-1.35-4.26-1.97-5.26-3.22-5.25-11.92-5.01-15.81-.64-1.57,1.77-3.9,7.25-3.9,9.52v24h-5.16v-40.77h4.64v7.22l3.08-3.89c6.24-6.12,18.25-6.01,22.49,2.31.38.74,1.78,4.42,1.78,4.93v30.19Z"/>
  <path class="cls-1" d="M93.92,256.52v11.87h9.8v4.64h-9.8c.32,7.04-.42,14.43-.02,21.44.1,1.79.39,5.39.76,6.98,1.39,5.97,9.19,2.65,9.58,3.06-.23,3.58,1.4,4.89-2.81,5.18-3.8.26-8.48.46-10.83-3.15-.43-.66-1.83-4.35-1.83-4.88v-28.64h-8.26v-4.64h8.26v-10.32c0-.27,4.55-1.42,5.16-1.55Z"/>
  <path class="cls-1" d="M294.65,256.52v11.87h9.03c1.1,0,1.1,4.64,0,4.64h-9.03v25.54c0,.59.89,3.73,1.24,4.44,1.86,3.85,8.74,1.14,9.08,1.5-.22,3.64,1.38,4.87-2.81,5.18s-8.31.47-10.82-3.16c-.5-.72-1.84-3.7-1.84-4.35v-29.16h-8.26v-4.64h8.26v-10.32c0-.27,4.52-1.23,5.16-1.55Z"/>
  <rect class="cls-1" x="11.87" y="252.39" width="5.68" height="56.76"/>
  <rect class="cls-1" x="484.03" y="248.26" width="5.16" height="60.89"/>
  <path class="cls-1" d="M165.65,276.13l3.1-4.9c2.66-2.23,5.99-3.84,9.57-3.38,3.01.38,1.44,3.29,1.78,5.7-4.67-1.29-9.5.58-11.97,4.79-.56.96-1.96,4.89-1.96,5.78v25.03h-5.68v-40.77h5.16v7.74Z"/>
  <rect class="cls-1" x="317.36" y="268.39" width="5.16" height="40.77"/>
  <path class="cls-1" d="M516.03,248.52c.31-1.02,1.98-1.03,2.84-.26,1.6,1.44,4.02,11.07,5.67,13.42,1.95-1.97,4.85-12.72,6.45-13.68.65-.39,1.37-.26,2.07-.25v17.03h-1.55v-13.93l-5.56,12.76c-.67,1.61-2.25,1.72-2.72-.09l-5.14-11.63v12.9c0,.1-2.06.1-2.06,0v-16.25Z"/>
  <path class="cls-1" d="M323.04,249.29c-.5,2.54,1.45,6.84-1.78,7.25-6.37.81-4.05-2.54-4.42-7.25h6.2Z"/>
  <path class="cls-1" d="M513.96,248.26v1.55c-.22.23-4.64-.23-4.64,0v14.96h-1.55v-14.96c0-.26-4.92.25-5.16,0v-1.55h11.36Z"/>
  <g>
    <path class="cls-1" d="M15.48,151.25l12.91,64.5,13.87-64.2,19.18-.07c4.98,21.65,10.33,43.39,14.16,65.31l13.67-65.54h14.45l-18.6,76.35-19.27.05-14.51-65.57-13.73,65.49c-5.55-.43-12.39.75-17.78.08-.57-.07-1.16.05-1.53-.53L0,151.25h15.48Z"/>
    <path class="cls-1" d="M294.14,145.57v33.54c1.78.05,2.3-2.15,3.36-3.09,13.18-11.65,35.34-4.94,35.34,14.19v37.41h-14.45v-34.32c0-1.34-1.96-6.27-2.87-7.45-3.46-4.5-12.27-4.14-16.24-.31-3.02,2.91-5.14,9.86-5.14,13.95v28.12h-13.93v-82.05h13.93Z"/>
    <path class="cls-1" d="M266.27,153.32l-1.56,11.87c-7.42-2.44-19.24-6.11-26.28-1.26s-2.2,10.96,3.23,14.24c6.69,4.04,14.16,6.31,20.23,11.77,11.32,10.19,8.53,27.55-4.24,35-11.96,6.98-25.41,4.42-37.76.03-.4-4.3.73-8.55.97-12.83,7.83,2.55,13.62,6.16,22.39,5.11,6.39-.76,12.45-7.02,9.02-13.55-2.52-4.8-16.07-10.19-21.05-13.53-18.96-12.72-12.95-35.87,9.15-39.78,9.52-1.68,16.82.47,25.9,2.94Z"/>
    <path class="cls-1" d="M392.18,227.62h-12.9l-.52-8.25-4.12,4.39c-13.75,11.27-35.25,4.36-33.04-15.49,1.74-15.6,24.98-15.91,36.64-15.74-.38-11.12-9.73-13.54-19.21-11.72-3.87.74-6.94,2.76-10.72,3.47v-9.55c16.74-7.11,39.91-8.11,43.29,14.51,1.82,12.19-.17,26,.58,38.38ZM378.25,200.79c-6.18.22-18.37-.39-21.69,5.92-3.14,5.96,1.04,11.86,7.48,12.16,10.25.48,15.11-8.96,14.21-18.09Z"/>
    <path class="cls-1" d="M494.87,203.88h-39.22c2.09,17.56,22.15,16.99,34.57,10.84v11.35c-16.97,5.62-40.17,4.99-46.83-14.83-7.78-23.13,7.49-45.64,32.82-40.04,10.37,2.29,18.66,13.02,18.66,23.66v9.03ZM481.45,194.6c-.42-19.76-24.5-19.19-25.8,0h25.8Z"/>
    <path class="cls-1" d="M156.36,203.88h-39.22c2.08,17.53,22.19,17.04,34.57,10.84v11.35c-16.62,5.43-39.14,5.2-46.32-13.8-8.69-23.02,6.26-46.45,31.89-41.18,10.39,2.14,19.07,12.45,19.07,23.24v9.55ZM142.94,194.6c-.39-19.72-24.35-19.17-25.8,0h25.8Z"/>
    <rect class="cls-1" x="165.65" y="145.57" width="13.93" height="82.05"/>
    <rect class="cls-1" x="193.51" y="145.57" width="13.93" height="82.05"/>
    <path class="cls-1" d="M417.98,181.18l3.11-4.38c3.58-4.93,11.37-7.79,17.19-5.86.72.24.74.54.86,1.2.64,3.36-1.23,8.01-.51,11.62-7.29-1.27-14.43-.02-17.65,7.38-.68,1.56-1.96,6.32-1.96,7.84v28.64h-14.45v-55.73h13.42v9.29Z"/>
  </g>
</svg>