<svg fill="none" height="24" viewBox="0 0 24 24" width="24" xmlns="http://www.w3.org/2000/svg"><g clip-rule="evenodd" fill="rgb(0,0,0)" fill-rule="evenodd"><path d="m12 7c-2.76142 0-5 2.23858-5 5 0 2.7614 2.23858 5 5 5 2.7614 0 5-2.2386 5-5 0-2.76142-2.2386-5-5-5zm-3 5c0-1.6569 1.3431-3 3-3s3 1.3431 3 3-1.3431 3-3 3-3-1.3431-3-3z"/><path d="m9 3c-1.13699 0-2.12472.63289-2.6327 1.56085-.09535.17419-.19891.3055-.28841.38226-.04646.03984-.07418.05306-.08504.05689-2.7586.00332-4.99385 2.24063-4.99385 5v6c0 2.7614 2.23858 5 5 5h12c2.7614 0 5-2.2386 5-5v-6c0-2.75937-2.2353-4.99667-4.9939-5-.0108-.00383-.0385-.01705-.085-.05689-.0895-.07676-.193-.20807-.2884-.38226-.508-.92796-1.4957-1.56085-2.6327-1.56085zm-.87836 2.52121c.17121-.31275.50116-.52121.87836-.52121h6c.3772 0 .7072.20846.8784.52121.1698.31026.4123.65843.7407.94005.3335.28597.8005.53874 1.3809.53874 1.6569 0 3 1.34315 3 3v6c0 1.6569-1.3431 3-3 3h-12c-1.65685 0-3-1.3431-3-3v-6c0-1.65685 1.34315-3 3-3 .58037 0 1.04745-.25277 1.3809-.53874.32837-.28162.5709-.62979.74074-.94005z"/></g></svg>