<svg id="Layer_1" enable-background="new 0 0 64 64" height="512" viewBox="0 0 64 64" width="512" xmlns="http://www.w3.org/2000/svg"><g><path d="m52.5 21.1c-2.9 1.3-5.9 2.7-8.8 4 0-.8 0-1.5 0-2.3s-.5-1.6-1.3-1.9c1.3-1.7 2.1-3.8 2.1-6.1 0-5.5-4.5-10-10-10-3.3 0-6.2 1.6-8 4-1.8-2.4-4.7-4-8-4-5.5 0-10 4.5-10 10 0 2.3.8 4.5 2.1 6.2-.8.3-1.3 1-1.3 1.9v16.7c0 1.1.9 2 2 2h11.6c-2.4 3.8-4.9 7.5-7.3 11.3-.4.7-.9 1.4-1.3 2-1.4 2.2 2.1 4.2 3.5 2 2.3-3.5 4.6-7.1 6.9-10.6v8.8 2.2c0 2.6 4 2.6 4 0 0-3.8 0-7.6 0-11.4 1.9 3 3.7 6 5.6 9 .4.7.8 1.3 1.2 2 1.4 2.2 4.8.2 3.5-2-2.8-4.4-5.5-8.9-8.3-13.3h7.4 3.8c1.1 0 2-.9 2-2 0-.6 0-1.3 0-1.9 3.1 1.3 6.2 2.6 9.3 3.9 1.2.5 2.5-.8 2.5-1.9 0-4.9 0-9.8 0-14.6 0-.7 0-1.4 0-2.1-.1-1.8-1.8-2.6-3.2-1.9zm-18-12.4c3.3 0 6 2.7 6 6s-2.7 6-6 6-6-2.7-6-6 2.7-6 6-6zm-16 0c3.3 0 6 2.7 6 6s-2.7 6-6 6-6-2.7-6-6 2.6-6 6-6zm-3.4 28.8c-.6 0-1.2 0-1.8 0 0-4.2 0-8.5 0-12.7h24.7 1.8v12.7c-8.3 0-16.5 0-24.7 0zm28.6-8c2.6-1.2 5.2-2.4 7.8-3.6v10.6c-2.6-1.1-5.2-2.2-7.8-3.3 0-1.2 0-2.5 0-3.7z"/><path d="m32.2 29.1c-3.3 0-6.7 0-10 0-.5 0-.9 0-1.4 0-1 0-2 .9-2 2s.9 2 2 2h10 1.4c1 0 2-.9 2-2-.1-1.1-.9-2-2-2z"/></g></svg>